<?xml version="1.0" encoding="UTF-8" standalone="no"?>
<!-- Created with Inkscape (http://www.inkscape.org/) -->

<svg
   xmlns:dc="http://purl.org/dc/elements/1.1/"
   xmlns:cc="http://creativecommons.org/ns#"
   xmlns:rdf="http://www.w3.org/1999/02/22-rdf-syntax-ns#"
   xmlns:svg="http://www.w3.org/2000/svg"
   xmlns="http://www.w3.org/2000/svg"
   xmlns:xlink="http://www.w3.org/1999/xlink"
   xmlns:sodipodi="http://sodipodi.sourceforge.net/DTD/sodipodi-0.dtd"
   xmlns:inkscape="http://www.inkscape.org/namespaces/inkscape"
   version="1.1"
   id="svg10"
   width="353"
   height="100"
   viewBox="0 0 353 100"
   sodipodi:docname="bt_t3.svg"
   inkscape:version="0.92.2 (5c3e80d, 2017-08-06)">
  <metadata
     id="metadata16">
    <rdf:RDF>
      <cc:Work
         rdf:about="">
        <dc:format>image/svg+xml</dc:format>
        <dc:type
           rdf:resource="http://purl.org/dc/dcmitype/StillImage" />
        <dc:title></dc:title>
      </cc:Work>
    </rdf:RDF>
  </metadata>
  <defs>
		<pattern id="avatar2" x="-430" y="-150" width="1116" height="676" patternUnits="userSpaceOnUse">
			<image width="1116" height="676" xlink:href="bt_hua.png"/>
		</pattern>
		<style>
			path {

			}
		</style>
	</defs>
  <path
     style="fill:url(#avatar2)"
     d="M 122,50 V 0 h 21.5 21.5 v 50 50 H 143.5 122 Z m 24,0 c 0,-39.333333 -0.0333,-40 -2,-40 -1.96667,0 -2,0.666667 -2,40 0,39.333333 0.0333,40 2,40 1.96667,0 2,-0.666667 2,-40 z m 21,25 V 50 h 32.5 32.5 v 25 25 H 199.5 167 Z m 44,10 V 80 H 199.5 188 v 5 5 h 11.5 11.5 z m 0,-20 V 60 H 199.5 188 v 5 5 H 199.5 211 Z M 0,97.804729 C 0,95.480332 3.9807825,49.552546 4.5551716,45.25 L 5.1225458,41 H 16.061273 27 l -0.07842,3.25 c -0.04313,1.7875 -1.055629,14.725 -2.25,28.75 L 22.5,98.5 11.25,98.782751 C 2.7158866,98.997243 0,98.761136 0,97.804729 Z M 30,94 c 0,-4.888889 0.06667,-5 3,-5 2.188352,0 3.001509,-0.473462 3.005577,-1.75 0.0031,-0.9625 0.474219,-3.4375 1.047004,-5.5 L 38.094008,78 H 49.047004 C 56.108986,78 60,78.377291 60,79.062055 c 0,0.584131 -0.975586,5.309131 -2.167968,10.5 L 55.664064,99 H 42.832032 30 Z m 53.083227,1.25 c -0.546623,-2.0625 -1.480473,-6 -2.075222,-8.75 -0.594748,-2.75 -1.32018,-5.7875 -1.61207,-6.75 C 78.912105,78.154585 79.872966,78 90.273483,78 h 11.408257 l 1.23085,5.5 c 1.07839,4.818765 1.53161,5.5 3.65913,5.5 C 108.81899,89 109,89.372712 109,94 v 5 H 96.538544 84.077088 Z M 244,93.748019 C 244,91.40943 244.9,84.772821 246,79 247.1,73.227179 248,67.71557 248,66.751981 248,65.666667 247.23896,65 246,65 c -1.7037,0 -2,-0.666667 -2,-4.5 V 56 h 54.5 54.5 v 4.5 4.5 h -40.88604 -40.88604 l -2.11396,11.343218 C 267.95128,82.581988 267,87.981988 267,88.343218 267,88.704448 281.4404,89 299.08977,89 h 32.08977 l -0.70805,-8.5 -0.70804,-8.5 h 10.557 10.557 l 0.52893,4.25 c 0.29091,2.3375 0.80888,8.1875 1.15104,13 L 353.17954,98 H 298.58977 244 Z M 30,55 V 35 H 44.5 C 58.333333,35 59,34.908046 59,33 59,31.091954 58.333333,31 44.5,31 H 30 V 26.5 22 h 39 39 V 26.5 31 H 93.5 C 79.666667,31 79,31.091954 79,33 c 0,1.911111 0.666667,2 15,2 h 15 V 55 75 H 69.5 30 Z m 29,7 c 0,-2.833333 -0.222222,-3 -4,-3 -3.777778,0 -4,0.166667 -4,3 0,2.833333 0.222222,3 4,3 3.777778,0 4,-0.166667 4,-3 z m 29,0 c 0,-2.888889 -0.166667,-3 -4.5,-3 -4.333333,0 -4.5,0.111111 -4.5,3 0,2.888889 0.166667,3 4.5,3 4.333333,0 4.5,-0.111111 4.5,-3 z M 59,47 c 0,-2.833333 -0.222222,-3 -4,-3 -3.777778,0 -4,0.166667 -4,3 0,2.833333 0.222222,3 4,3 3.777778,0 4,-0.166667 4,-3 z m 29,0 c 0,-2.888889 -0.166667,-3 -4.5,-3 -4.333333,0 -4.5,0.111111 -4.5,3 0,2.888889 0.166667,3 4.5,3 4.333333,0 4.5,-0.111111 4.5,-3 z M 168,23 V 0 H 199.5 231 V 23 46 H 199.5 168 Z m 42,9 V 28 H 199.5 189 v 4 4 h 10.5 10.5 z m 0,-18 V 10 H 199.5 189 v 4 4 h 10.5 10.5 z m 34,26 v -5 h 54.5 54.5 v 5 5 H 298.5 244 Z m 0,-13.5 c 0,-3.221467 0.4036,-4.5 1.42054,-4.5 1.46464,0 2.01727,-1.900633 3.053,-10.5 0.33122,-2.75 0.84592,-6.2375 1.14379,-7.75 L 250.15891,1 h 48.31789 48.31789 l 1.06958,6.25 c 0.58827,3.4375 1.36698,8.1625 1.73047,10.5 0.40649,2.614094 1.18906,4.25 2.03307,4.25 C 352.58882,22 353,23.357644 353,26.530779 v 4.530779 L 340.76127,30.780779 328.52255,30.5 326.9989,21 325.47526,11.5 298.35234,11.234137 271.22941,10.968274 269.953,20.984137 268.67659,31 H 256.3383 244 Z M 1,25 v -5 h 13 13 v 5 5 H 14 1 Z M 29,11 V 3 H 43.5 C 55.722222,3 58,2.7643678 58,1.5 58,0.25757576 59.888889,0 69,0 78.111111,0 80,0.25757576 80,1.5 80,2.7643678 82.277778,3 94.5,3 H 109 v 8 8 H 98.5 88 V 16 13 H 69 50 v 3 3 H 39.5 29 Z M 1,5 V 0 h 13 13 v 5 5 H 14 1 Z"
     id="path20"
     inkscape:connector-curvature="0" />
</svg>
