<?xml version="1.0" encoding="UTF-8" standalone="no"?>
<!-- Created with Inkscape (http://www.inkscape.org/) -->

<svg class="yinzang_ac"
   xmlns:dc="http://purl.org/dc/elements/1.1/"
   xmlns:cc="http://creativecommons.org/ns#"
   xmlns:rdf="http://www.w3.org/1999/02/22-rdf-syntax-ns#"
   xmlns:svg="http://www.w3.org/2000/svg"
   xmlns="http://www.w3.org/2000/svg"
   xmlns:xlink="http://www.w3.org/1999/xlink"
   xmlns:sodipodi="http://sodipodi.sourceforge.net/DTD/sodipodi-0.dtd"
   xmlns:inkscape="http://www.inkscape.org/namespaces/inkscape"
   version="1.1"
   id="svg144"
   width="805"
   height="294"
   viewBox="0 0 805 294"
   sodipodi:docname="bt_t1.svg"
   inkscape:version="0.92.2 (5c3e80d, 2017-08-06)">
  <defs>
			<pattern id="avatar5" x="-200" y="-350" width="1116" height="676" patternUnits="userSpaceOnUse">
				<image width="1116" height="676" xlink:href="bt_hua.png"/>
			</pattern>
			<style>
				path {
					
				}
			</style>
		</defs>
  <g
     id="g154" style="fill:url(#avatar5)">
    <path
       d="m 388.85093,293.5176 c -0.26532,-0.26533 -16.65282,-6.59788 -36.41667,-14.07234 C 302.02604,260.38144 259.63068,244.34579 231,233.51388 205.60227,223.9051 151.75328,203.64535 134.76876,197.30854 l -9.73125,-3.63066 3.17322,-5.58894 c 1.74527,-3.07392 3.96091,-6.90288 4.92365,-8.50881 l 1.75045,-2.91988 -4.94242,-7.14945 C 127.22409,165.5786 125,162.05504 125,161.68067 c 0,-0.37437 4.8375,-0.67534 10.75,-0.66882 l 10.75,0.0118 3.85387,5.55096 c 2.11962,3.05302 4.08451,5.32031 4.36641,5.03841 0.2819,-0.2819 3.99154,-5.59766 8.24364,-11.8128 l 7.7311,-11.30026 h 8.90249 8.90249 l 0.2958,3.50565 c 0.25192,2.98561 -0.8243,5.08375 -7.2549,14.14375 l -7.5507,10.6381 4.14319,8.63463 c 2.27875,4.74905 3.87973,8.89808 3.55774,9.22007 -0.80074,0.80074 -24.5581,-7.65202 -26.24333,-9.33726 -1.13622,-1.13621 -1.53244,-1.0153 -2.481,0.7571 -0.62086,1.16009 -0.97097,2.26712 -0.77803,2.46007 0.19295,0.19294 13.39191,5.32768 29.33102,11.41051 15.93912,6.08284 31.23021,11.93357 33.98021,13.00161 2.75,1.06805 26.825,10.26245 53.5,20.432 26.675,10.16955 65.08108,24.82242 85.34685,32.56193 C 374.61261,273.66767 391.80312,280 392.54798,280 c 0.74485,0 8.01377,-2.44053 16.15315,-5.42339 8.13938,-2.98287 23.12387,-8.43025 33.29887,-12.10529 10.175,-3.67504 22.55,-8.16986 27.5,-9.98848 11.21896,-4.12182 33.77446,-12.33293 70,-25.48284 36.22554,-13.14991 58.78104,-21.36102 70,-25.48284 4.95,-1.81862 17.325,-6.29978 27.5,-9.95813 26.94167,-9.68669 24.2299,-8.2388 23.50181,-12.54831 -0.3433,-2.03195 -1.18267,-7.77755 -1.86527,-12.76801 l -1.24109,-9.07355 3.67884,-12.83458 c 2.02336,-7.05902 4.44131,-15.42208 5.37323,-18.58458 l 1.6944,-5.75 h 9.28702 9.28703 l 1.18714,9.25 c 1.59358,12.41683 2.79977,21.2743 4.52792,33.25 0.79367,5.5 1.74097,12.96443 2.10511,16.58763 0.65954,6.56242 0.65118,6.59175 -2.18703,7.6663 -3.62133,1.37103 -12.17083,4.45404 -35.34911,12.74712 -26.39308,9.44333 -56.41346,20.22983 -64,22.99558 -3.575,1.30331 -12.8,4.6283 -20.5,7.38888 -7.7,2.76058 -29.525,10.61313 -48.5,17.45012 -134.8985,48.60604 -133.27855,48.05248 -135.14907,46.18197 z m -21.82942,-36.00687 c -23.1202,-6.11197 -42.5415,-20.03787 -56.76738,-40.70465 C 302.08543,204.93893 300.74324,206 323.92312,206 h 20.1371 l 6.45401,5.47511 c 14.60271,12.38786 31.40911,17.20343 49.25369,14.11275 31.41552,-5.44116 53.89333,-28.23741 57.02991,-57.83786 3.59496,-33.92625 -15.15429,-61.51416 -48.83307,-71.853683 -10.46697,-3.213403 -25.46664,-3.212133 -35.93954,0.003 -9.34995,2.870433 -14.81961,5.630443 -22.77803,11.493853 L 342.99438,112 H 326.4298 c -15.31301,0 -16.52414,-0.13222 -16.02935,-1.75 3.42029,-11.183169 28.49409,-90.78591 33.23109,-105.5 L 345.16073,0 h 60.98702 c 57.63274,0 60.95576,0.09624989 60.41864,1.75 -0.31261,0.9625 -2.71954,8.275 -5.34873,16.25 l -4.78033,14.5 -43.05252,0.260498 -43.05251,0.260498 -4.66615,14.765572 C 363.09977,55.907632 361,62.833867 361,63.178202 c 0,0.344334 2.04286,0.01125 4.53968,-0.74018 2.49682,-0.751434 9.2469,-1.913416 15.00016,-2.582183 28.85427,-3.35406 60.38886,8.294574 82.27482,30.391681 9.31863,9.408526 13.44688,15.19804 18.82348,26.3983 6.68721,13.93043 8.56677,22.19833 9.11098,40.07782 0.46756,15.3612 -0.52564,23.50613 -4.2421,34.78814 -10.08848,30.62554 -36.16851,55.21459 -69.00702,65.06194 -7.77185,2.33056 -11.18337,2.7496 -25,3.07077 -14.5806,0.33894 -16.84086,0.14965 -25.47849,-2.13376 z M 260.23542,224.56816 C 243.58991,218.37297 229.67741,213.01074 229.31876,212.65209 228.96011,212.29344 242.91667,212 260.33333,212 H 292 v 12 c 0,6.6 -0.3375,11.96223 -0.75,11.91607 -0.4125,-0.0462 -14.36906,-5.15273 -31.01458,-11.34791 z m 247.46235,5.79627 c -1.30569,-1.30568 -0.79891,-17.38839 0.5644,-17.91154 0.6942,-0.26639 14.3067,-0.36477 30.25,-0.21862 L 567.5,212.5 l -8,2.6836 c -4.4,1.47598 -17.225,5.47722 -28.5,8.89166 -11.275,3.41443 -20.97351,6.3833 -21.55223,6.59749 -0.57873,0.2142 -1.36623,0.0754 -1.75,-0.30832 z M 40.693626,206.36029 C 40.312132,205.9788 40,198.09167 40,188.83333 V 172 H 20 0 V 166.5 161 H 3.5 7 V 138.5 116 h 16.5 c 15.833333,0 16.5,-0.0808 16.5,-2 0,-1.872 -0.68799,-2.00409 -10.75,-2.06397 -5.9125,-0.0352 -14.9125,-0.009 -20,0.0586 -6.0886115,0.0807 -9.25,-0.25025 -9.25,-0.96829 0,-0.59998 1.9125,-4.44658 4.25,-8.54799 l 4.25,-7.45711 9.25,-0.01062 c 5.0875,-0.0058 9.25,0.188658 9.25,0.43222 0,0.243562 -0.975261,2.156062 -2.167248,4.25 -1.191986,2.09394 -1.551986,3.24466 -0.8,2.55716 C 25.064586,101.30665 32.955865,101 56.2,101 H 87 v 5.5 5.5 h -9 c -8.333333,0 -9,0.14815 -9,2 0,1.85185 0.666667,2 9,2 h 9 v 6 6 h -9 -9 v 16.5 16.5 h 9 9 v 5.5 5.5 H 78.023614 69.047228 L 68.773614,189.25 68.5,206.5 54.943626,206.77696 c -7.456006,0.15233 -13.868506,-0.0352 -14.25,-0.41667 z M 40,144.5 V 128 H 34.5 29 V 144.5 161 H 34.5 40 Z M 21.5,107 c 0.853248,-1.65 1.32636,-3 1.05136,-3 -0.275,0 -1.198112,1.35 -2.05136,3 -0.853248,1.65 -1.32636,3 -1.05136,3 0.275,0 1.198112,-1.35 2.05136,-3 z m 71.19757,99.36424 C 92.313906,205.98057 92,182.11667 92,153.33333 V 101 h 20.5 20.5 v -3 -3 h 16 16 v 3 3 h 13 13 v 6 6 h -37.49011 -37.49011 l -0.25989,46.75 -0.25989,46.75 -11.05243,0.2809 c -6.078837,0.1545 -11.366337,-0.033 -11.75,-0.41666 z m 106.07196,-4.54809 c -7.55175,-2.78869 -13.48769,-5.46315 -13.19098,-5.94325 0.29672,-0.48009 4.24552,-0.8729 8.77512,-0.8729 h 8.23564 l -2.64085,-13.25 c -1.45246,-7.2875 -2.95545,-14.9375 -3.33996,-17 L 195.90937,161 h 12.90647 12.90646 l 2.21369,12.25 c 1.21753,6.7375 2.36949,12.7 2.5599,13.25 0.19042,0.55 0.38174,-7.2125 0.42516,-17.25 L 227,151 h -16 -16 v -6 -6 h 16 16 v -5.5 -5.5 h -16 -16 v -6 -6 h 48.5 48.5 v 6 6 h -16 -16 v 5.5 5.5 h 16 16 v 6 6 h -16 -16 l 0.10635,17.25 0.10636,17.25 2.52657,-12.25 2.52657,-12.25 H 278.10792 290.95 l -0.62471,3.25 c -0.3436,1.7875 -1.83688,9.325 -3.31842,16.75 l -2.6937,13.5 3.59341,0.5 3.59342,0.5 v 5.5 5.5 l -39.5,0.19325 -39.5,0.19326 z M 507.49208,204.75 c -0.30031,-1.2375 -0.42139,-24.975 -0.26905,-52.75 L 507.5,101.5 520.25,101.22012 533,100.94025 v -2.951075 c 0,-3.682405 1.66802,-4.187438 12.50336,-3.785679 L 553.5,94.5 l 0.31336,3.25 c 0.17235,1.7875 0.70633,3.25 1.18664,3.25 0.48031,0 1.01429,-1.4625 1.18664,-3.25 L 556.5,94.5 564.49664,94.203496 C 575.35454,93.800901 577,94.303034 577,98.019052 V 101 h 13 13 v 49.36783 49.36783 l -10.25,3.64144 -10.25,3.64144 -37.23095,-0.009 -37.23095,-0.009 -0.54602,-2.25 z m 25.72794,-38.25061 c 0.21891,-22.28339 0.007,-28.50047 -0.97002,-28.5 -0.97075,4.7e-4 -1.25,6.3676 -1.25,28.50061 0,17.74619 0.36602,28.5 0.97002,28.5 0.59746,0 1.07756,-10.94645 1.25,-28.50061 z M 556,166.5 c 0,-18.33333 -0.35673,-28.5 -1,-28.5 -0.64327,0 -1,10.16667 -1,28.5 0,18.33333 0.35673,28.5 1,28.5 0.64327,0 1,-10.16667 1,-28.5 z m 23,0 c 0,-22.13301 -0.27925,-28.50014 -1.25,-28.50061 -0.97732,-4.7e-4 -1.18893,6.21661 -0.97002,28.5 C 576.95242,184.05355 577.43252,195 578.02998,195 578.63398,195 579,184.24619 579,166.5 Z M 533.15745,119.50136 C 532.71238,112.35357 531,112.35249 531,119.5 c 0,3.73261 0.40168,5.50044 1.25,5.50136 0.89015,9.7e-4 1.15139,-1.58238 0.90745,-5.5 z M 556,119.5 c 0,-3.025 -0.45,-5.5 -1,-5.5 -0.55,0 -1,2.475 -1,5.5 0,3.025 0.45,5.5 1,5.5 0.55,0 1,-2.475 1,-5.5 z m 23,0 c 0,-7.14751 -1.71238,-7.14643 -2.15745,0.001 -0.24394,3.91762 0.0173,5.50097 0.90745,5.5 0.84832,-9.2e-4 1.25,-1.76875 1.25,-5.50136 z m 73.5,85.5 c 0.33992,-0.55 1.0668,-1 1.6153,-1 0.74752,0 32.57085,-10.76424 40.52101,-13.70623 0.70961,-0.26259 1.55452,1.98104 2.25,5.97478 C 698.7642,207.05221 701.13703,206 674.94098,206 659.82295,206 652.0948,205.65562 652.5,205 Z m 55.5,0.36059 c 0,-0.35168 2.475,-3.70267 5.5,-7.44665 3.025,-3.74399 5.50061,-6.94375 5.50136,-7.11059 7.5e-4,-0.16684 -2.47425,-0.1492 -5.5,0.0392 L 708,191.1851 V 167.09255 143 h 48.5 48.5 v 24 24 h -6.0431 -6.0431 l 5.5431,6.86059 c 3.0487,3.77332 5.5431,7.14832 5.5431,7.5 C 804,205.71227 798.18869,206 791.08597,206 h -12.91402 l -10.6305,-15.03423 c -5.84677,-8.26883 -10.87175,-15.66295 -11.16663,-16.43139 -0.29488,-0.76844 0.48478,-2.77804 1.73258,-4.46577 2.11,-2.85393 2.70476,-3.06861 8.50158,-3.06861 h 6.23287 l 4.07907,5.74998 L 781,178.49995 V 166.74998 155 H 756.5 732 v 8.68285 8.68285 l 6.10442,-8.18285 L 744.20884,156 h 11.00257 c 9.20866,0 10.9117,0.23679 10.44526,1.45232 -0.30652,0.79877 -8.32188,12.04877 -17.81191,25 L 730.59016,206 H 719.29508 C 713.08278,206 708,205.71227 708,205.36059 Z M 612.71,187.75 c 1.4014,-4.5375 6.92575,-23.1 12.27634,-41.25 l 9.72834,-33 L 621.10734,113 607.5,112.5 607.2001,106.75 606.90019,101 H 622.8251 638.75 l 0.6,-3 0.6,-3 h 17.10446 17.10445 l -0.65891,3 -0.65891,3 H 685.42054 698 v 6 6 h -14.45275 -14.45276 l -2.04235,6.75 c -1.12329,3.7125 -5.70502,19.4158 -10.18162,34.89622 l -8.13926,28.14622 -9.85318,3.65486 C 619.85958,193.50187 612.68086,196 611.4271,196 c -0.91646,0 -0.56291,-2.27356 1.2829,-8.25 z M 122,153.5 V 148 h 23.5 c 12.925,0 23.5,0.23023 23.5,0.51161 0,0.28139 -1.4625,2.74831 -3.25,5.48204 l -3.25,4.97042 -20.25,0.018 L 122,159 Z m 3,-15 c 0,-7.33333 -0.0556,-7.5 -2.5,-7.5 -2.38889,0 -2.5,-0.26667 -2.5,-6 0,-5.73333 0.11111,-6 2.5,-6 1.55556,0 2.5,-0.56667 2.5,-1.5 0,-1.25926 2.16667,-1.5 13.5,-1.5 11.33333,0 13.5,0.24074 13.5,1.5 0,1.04762 1.05556,1.5 3.5,1.5 2.44444,0 3.5,-0.45238 3.5,-1.5 0,-1.25926 2.16667,-1.5 13.5,-1.5 11.33333,0 13.5,0.24074 13.5,1.5 0,0.93333 0.94444,1.5 2.5,1.5 2.38889,0 2.5,0.26667 2.5,6 0,5.73333 -0.11111,6 -2.5,6 -2.44444,0 -2.5,0.16667 -2.5,7.5 V 146 H 155.5 125 Z m 34,-4.5 c 0,-2.7619 -0.27778,-3 -3.5,-3 -3.22222,0 -3.5,0.2381 -3.5,3 0,2.7619 0.27778,3 3.5,3 3.22222,0 3.5,-0.2381 3.5,-3 z m 549,-4.5 V 117 H 756.5 805 V 129.5 142 H 756.5 708 Z m 73,0 V 127 H 756.5 732 v 2.5 2.5 H 756.5 781 Z M 708,109 v -7 h 2.97525 c 2.78053,0 2.91142,-0.16787 2,-2.5651 C 712.43886,98.024096 712,96.460007 712,95.959147 c 0,-0.526926 12.64126,-0.917751 30,-0.927499 27.81875,-0.01562 30.00843,0.109856 30.116,1.725753 0.10976,1.648773 0.14063,1.648374 0.57333,-0.0074 0.40806,-1.561511 1.96459,-1.75 14.45138,-1.75 h 13.99407 l -0.70462,2.25 c -0.38754,1.2375 -0.91601,2.812499 -1.17438,3.499999 -0.31289,0.83258 0.56777,1.25 2.63723,1.25 H 805 v 7 7 h -9 c -8.33333,0 -9,-0.14815 -9,-2 0,-1.95628 -0.66667,-2 -30.5,-2 -29.83333,0 -30.5,0.0437 -30.5,2 0,1.85185 -0.66667,2 -9,2 h -9 z m -512.76388,3.77668 c 0.25881,-0.70218 1.7286,-5.10168 3.26619,-9.77668 1.53759,-4.675 3.29108,-8.830609 3.89665,-9.234687 0.60557,-0.404078 7.56232,-0.741578 15.45945,-0.75 L 232.21682,93 l -0.60415,2.407099 c -0.33228,1.323905 -0.84321,3.236405 -1.1354,4.25 -0.29219,1.013591 0.36244,-0.0696 1.45473,-2.407099 L 233.91799,93 h 24.91856 c 18.99427,0 25.1705,0.303564 25.97824,1.276841 0.58283,0.702263 2.17043,4.639763 3.52801,8.749999 1.35757,4.11024 2.78396,8.26066 3.16975,9.22316 0.64958,1.62064 -0.42124,1.75 -14.48601,1.75 h -15.18743 l -1.57125,-4 -1.57124,-4 h -14.9157 -14.9157 l 0.69162,-2.25 c 1.39927,-4.552189 -0.62886,-0.89631 -2.40753,4.33976 l -1.83783,5.41024 -15.27296,0.27668 c -12.05666,0.21841 -15.17388,0.008 -14.8024,-1 z"
       id="path166"
       inkscape:connector-curvature="0" />
    <path
       d="M 306,261.4264 C 176.90983,212.45031 157.8086,205.23228 141.5,199.26466 c -8.25,-3.01884 -15.14761,-5.62347 -15.32801,-5.78807 -0.18041,-0.1646 1.73209,-3.87089 4.25,-8.2362 2.5179,-4.3653 4.57801,-8.28555 4.57801,-8.71166 0,-0.42611 -2.025,-3.61253 -4.5,-7.08093 -2.475,-3.46841 -4.5,-6.56305 -4.5,-6.87699 C 126,162.25686 130.66129,162 136.35842,162 h 10.35842 l 3.7937,5.71372 c 3.55882,5.35997 3.87478,5.59214 5.10342,3.75 0.72035,-1.08005 4.3644,-6.46372 8.09789,-11.96372 l 6.78815,-10 8.75,-0.28893 8.75,-0.28894 v 3.67052 c 0,2.95592 -1.38438,5.59616 -7.11075,13.56141 -4.46425,6.20966 -6.92481,10.53384 -6.61114,11.61841 0.27479,0.95014 2.11327,5.21503 4.08551,9.47753 1.97224,4.2625 3.45956,7.75 3.30516,7.75 -1.90092,0 -25.47696,-9.53359 -26.34057,-10.65151 -1.01195,-1.30992 -1.4104,-1.15268 -2.92093,1.15268 -1.3903,2.12186 -1.48341,2.83374 -0.45387,3.47003 0.71239,0.44029 11.02681,4.50939 22.92093,9.04244 62.27047,23.73237 161.23526,61.48204 187.62566,71.56897 l 30,11.46659 133.5,-48.54544 c 73.425,-26.69999 133.97225,-48.7123 134.54944,-48.91625 0.70889,-0.25049 0.45919,-4.70564 -0.76948,-13.72916 L 657.96103,156.5 l 5.30409,-18 5.30409,-18 8.66292,-0.28817 8.66292,-0.28817 0.57365,3.28817 c 2.1616,12.39039 8.26039,61.41993 7.71016,61.9836 C 693.80549,185.57791 679.1,191.04453 661.5,197.34346 643.9,203.64239 586.975,224.10263 535,242.81065 395.74488,292.93451 392.75,294.0059 392.09889,293.93231 391.7695,293.89508 353.025,279.26742 306,261.4264 Z M 260.10714,223.96788 C 243.94107,217.96173 230.47857,212.8119 230.19047,212.52381 229.90238,212.23571 243.46667,212 260.33333,212 H 291 v 11.5 c 0,6.325 -0.3375,11.47483 -0.75,11.44408 -0.4125,-0.0308 -13.97679,-4.97005 -30.14286,-10.9762 z M 508,221 v -9 h 29.16667 c 16.04166,0 28.9508,0.21586 28.68697,0.47969 C 565.27653,213.05681 510.20707,230 508.90842,230 508.40879,230 508,225.95 508,221 Z M 40,189.02746 V 172 H 20 0 v -5 -5 H 3.5 7 V 139.5 117 H 23.5 40 v -3 -3 H 29.937588 19.875176 l 2.721341,-5 2.721341,-5 H 56.158929 87 v 5 5 h -9 -9 v 3 3 h 9 9 v 4.96247 4.96248 l -9.05485,0.28752 -9.054851,0.28753 v 17 17 L 77.94515,161.78753 87,162.07505 V 167.03753 172 H 78.024179 69.048358 L 68.774179,188.75 68.5,205.5 54.25,205.77746 40,206.05491 Z M 40,144.5 V 127 H 34.5 29 v 17.5 17.5 h 5.5 5.5 z m 53,9.03275 V 101 h 19.93358 19.93358 L 133.18358,98.25 133.5,95.5 h 15.5 15.5 l 0.31642,2.75 0.31642,2.75 h 12.34103 12.34103 l 0.34255,5.5855 c 0.1884,3.07202 0.15505,5.77202 -0.0741,6 C 189.85417,112.81347 173.09616,113 152.84332,113 H 116.01997 L 115.75999,159.25 115.5,205.5 104.25,205.78275 93,206.0655 Z m 105.5,47.61672 -12,-4.64947 8.25,-0.29044 c 4.5375,-0.15975 8.25,-0.62966 8.25,-1.04427 0,-0.4146 -1.34459,-7.4839 -2.98799,-15.70955 -1.64339,-8.22566 -2.99339,-15.53209 -3,-16.23652 -0.009,-0.98668 2.77826,-1.2163 12.13932,-1 l 12.15133,0.28078 2.81204,14.38004 c 1.54662,7.90902 3.05353,14.62152 3.34867,14.91666 C 227.75852,192.09185 228,183.03333 228,171.66667 V 151 h -16 -16 v -6 -6 h 16 16 v -5.5 -5.5 h -16 -16 v -6 -6 h 47.5 47.5 v 6 6 h -16 -16 v 5.5 5.5 h 16 16 v 6 6 h -16 -16 v 20.5 c 0,11.275 0.18451,20.5 0.41002,20.5 0.22551,0 1.67538,-6.75 3.22192,-15 l 2.8119,-15 h 12.32339 12.3234 l -0.66399,3.75 c -0.3652,2.0625 -1.73559,9.09938 -3.04532,15.63752 C 285.0716,187.92565 284,193.88815 284,194.63752 284,195.52797 285.21256,196 287.5,196 h 3.5 v 5 5 l -40.25,-0.10053 -40.25,-0.10054 z M 508,153.5 V 101 h 13 13 v -3.036212 -3.036212 l 9.75,0.286212 9.75,0.286212 0.31642,2.75 c 0.40899,3.55451 1.95817,3.55451 2.36716,0 L 556.5,95.5 566.25,95.213788 576,94.927576 v 3.007187 3.007187 l 13.25,0.27902 13.25,0.27903 v 48.84817 48.84818 l -9,3.39454 -9,3.39454 -38.25,0.007 L 508,206 Z m 26,12.5 c 0,-25.11111 -0.20115,-29 -1.5,-29 -1.29885,0 -1.5,3.88889 -1.5,29 0,25.11111 0.20115,29 1.5,29 1.29885,0 1.5,-3.88889 1.5,-29 z m 22,0 c 0,-18.66667 -0.35632,-29 -1,-29 -0.64368,0 -1,10.33333 -1,29 0,18.66667 0.35632,29 1,29 0.64368,0 1,-10.33333 1,-29 z m 23,0 c 0,-25.11111 -0.20115,-29 -1.5,-29 -1.29885,0 -1.5,3.88889 -1.5,29 0,25.11111 0.20115,29 1.5,29 1.29885,0 1.5,-3.88889 1.5,-29 z M 533.7999,119.329 C 533.36935,111.18759 531,110.83866 531,118.91667 c 0,4.82779 0.31988,6.08333 1.5499,6.08333 1.25293,0 1.49244,-1.08663 1.25,-5.671 z M 556,119 c 0,-3.33333 -0.44444,-6 -1,-6 -0.55556,0 -1,2.66667 -1,6 0,3.33333 0.44444,6 1,6 0.55556,0 1,-2.66667 1,-6 z m 23,-0.0833 c 0,-8.07801 -2.36935,-7.72908 -2.7999,0.41233 -0.24244,4.58437 -0.003,5.671 1.25,5.671 1.23002,0 1.5499,-1.25554 1.5499,-6.08333 z m 74.11754,86.63246 C 653.66051,205.00615 693.98363,191 695.00385,191 c 0.82391,0 2.85758,13.80524 2.13946,14.52336 C 696.88115,205.78551 686.76667,206 674.66667,206 c -12.1,0 -21.79711,-0.20289 -21.54913,-0.45087 z M 709,205.16697 c 0,-0.49538 2.47111,-3.99811 5.49135,-7.78383 L 719.98269,190.5 713.99135,190.20228 708,189.90457 V 166.95228 144 h 48.5 48.5 v 22.95431 22.95431 l -6.44914,0.29569 -6.44913,0.29569 5.44114,7 c 2.99263,3.85 5.44474,7.35135 5.44913,7.78078 0.004,0.42943 -5.49566,0.65443 -12.22236,0.5 L 778.53929,205.5 l -11.22804,-15.84677 -11.22803,-15.84677 2.14645,-2.90323 C 760.20172,168.23589 760.8855,168 766.64557,168 h 6.26945 l 3.79249,5.46206 c 2.08587,3.00413 4.01749,5.47951 4.29249,5.50085 0.275,0.0213 0.40773,-5.47409 0.29495,-12.21206 L 781.0899,154.5 756.54495,154.23253 732,153.96506 v 9.69458 9.69458 l 5.98975,-8.17711 L 743.9795,157 h 10.9964 10.99641 l -17.8677,24.25 -17.86771,24.25 -10.61845,0.28383 C 713.77657,205.93999 709,205.6625 709,205.16697 Z m -97.65582,-10.7657 C 619.11454,168.7072 635,114.2365 635,113.28628 635,112.30143 631.83643,112 621.5,112 H 608 v -5.47461 -5.4746 l 15.70596,-0.2754 15.70597,-0.27539 0.58812,-2.5 0.58813,-2.5 16.33599,-0.275395 16.33599,-0.275395 -0.60508,3.025395 L 672.05,101 H 685.025 698 v 5.47327 5.47326 l -14.67871,0.27674 -14.67871,0.27673 -10.16643,34.7618 c -5.59153,19.119 -10.34861,34.92479 -10.57129,35.12399 -0.22267,0.19919 -7.82986,3.08345 -16.90486,6.40946 -9.075,3.326 -17.33943,6.37578 -18.3654,6.77729 -1.50816,0.5902 -1.75529,0.36589 -1.29042,-1.17127 z M 123,154 v -5 h 22.61501 22.61501 l -1.4512,2.25 c -0.79817,1.2375 -2.25167,3.4875 -3.23002,5 L 161.76998,159 H 142.38499 123 Z m 2.66667,-8.66667 C 125.3,144.96667 125,141.59167 125,137.83333 125,131.66667 124.80488,131 123,131 c -1.75447,0 -2,-0.66667 -2,-5.43045 0,-4.87023 0.23212,-5.46341 2.25,-5.75 1.2375,-0.17575 2.25,-0.99455 2.25,-1.81955 0,-1.24382 2.2629,-1.54765 13.25,-1.77903 12.73819,-0.26824 13.25,-0.20065 13.25,1.75 0,1.65222 0.64998,2.02903 3.5,2.02903 2.83333,0 3.5,-0.38095 3.5,-2 0,-1.90123 0.66667,-2 13.5,-2 12.83333,0 13.5,0.0988 13.5,2 0,1.40781 0.66621,1.9996 2.25,1.99864 2.10232,-10e-4 2.22752,0.35973 1.90745,5.5 C 189.86941,130.12463 189.51139,131 187.90745,131 186.2004,131 186,131.78797 186,138.5 v 7.5 h -29.83333 c -16.40834,0 -30.13334,-0.3 -30.5,-0.66667 z M 159,134 c 0,-2.7619 -0.27778,-3 -3.5,-3 -3.22222,0 -3.5,0.2381 -3.5,3 0,2.7619 0.27778,3 3.5,3 3.22222,0 3.5,-0.2381 3.5,-3 z m 549,-4.5 V 118 H 756.5 805 V 129.5 141 H 756.5 708 Z m 73.5,0 V 127 H 756.75 732 v 2.5 2.5 h 24.75 24.75 z M 708,108.5 V 102 h 3.11663 c 3.22177,0 3.35069,-0.48697 1.38983,-5.25 -0.66241,-1.609056 0.23911,-1.75 11.19351,-1.75 h 11.91395 l 1.08666,2.75 1.08666,2.75 0.10638,-2.75 L 738,95 h 16.43358 16.43358 l 0.37349,2.75 0.3735,2.75 1.16818,-2.75 1.16817,-2.75 h 13.02475 C 794.38712,95 800,95.402886 800,95.9349 c 0,0.514196 -0.43886,2.089196 -0.97525,3.5 -0.93091,2.44848 -0.81725,2.5651 2.5,2.5651 H 805 v 6.5 6.5 h -9 c -8.33333,0 -9,-0.14815 -9,-2 0,-1.95628 -0.66667,-2 -30.5,-2 -29.83333,0 -30.5,0.0437 -30.5,2 0,1.85185 -0.66667,2 -9,2 h -9 z m -511.5392,2.75 c 0.37269,-1.5125 1.82982,-6.0125 3.23808,-10 L 202.25934,94 h 14.82552 14.82551 l -2.49045,6.61652 c -1.36975,3.63909 -3.12662,8.13909 -3.90416,10 L 224.10205,114 h -14.15943 -14.15944 z m 65.79592,1.5 c -0.5435,-0.6875 -1.42305,-2.6 -1.95455,-4.25 l -0.96638,-3 -14.72669,-0.27707 C 228.05803,104.91154 229.14183,105.62921 232.56876,97.25 L 233.89795,94 h 25.46168 25.46168 l 3.06415,9.13627 c 1.68528,5.02494 2.82392,9.52494 2.53032,10 -0.88459,1.4313 -27.00546,1.07299 -28.15906,-0.38627 z m -261.0171061,-4 c 0.8082986,-1.2375 2.9280094,-4.8375 4.7104684,-8 L 9.190917,95 h 8.404541 C 22.217956,95 26,95.282101 26,95.626892 c 0,0.34479 -1.831521,3.94479 -4.070046,7.999998 L 17.859909,111 H 8.8149443 -0.23001987 Z"
       id="path164"
       inkscape:connector-curvature="0" />
    <path
       d="M 378.42146,288.49506 C 370.76465,285.59702 350.775,278.03036 334,271.68027 c -16.775,-6.3501 -52.1,-19.71846 -78.5,-29.70748 -26.4,-9.98902 -61.05,-23.10434 -77,-29.14516 -15.95,-6.04081 -33.83594,-12.72075 -39.74653,-14.84431 -5.9106,-2.12355 -11.1705,-4.12302 -11.68867,-4.44327 -0.51817,-0.32025 1.05527,-3.96073 3.49653,-8.08996 2.44127,-4.12923 4.43867,-8.10221 4.43867,-8.82885 0,-0.72664 -1.26853,-3.07618 -2.81896,-5.2212 -1.55043,-2.14502 -3.62719,-5.13754 -4.61501,-6.65004 l -1.79605,-2.75 10.36501,0.005 10.36501,0.005 3.5,5.48968 c 1.925,3.01932 3.82861,5.492 4.23025,5.49484 C 154.6319,172.99768 158.57828,167.6 163,161 l 8.03949,-12 H 179.51975 188 v 3.66098 c 0,2.86089 -1.15696,5.21024 -5.29397,10.75 -2.91168,3.89896 -6.27353,8.49002 -7.47077,10.20235 l -2.17681,3.11333 4.00085,8.27326 c 2.20047,4.55029 3.78767,8.48644 3.52712,8.747 -0.26056,0.26056 -5.87572,-1.48841 -12.47813,-3.88659 -8.30226,-3.01561 -12.28203,-4.97517 -12.90467,-6.35397 -0.83005,-1.83814 -1.03574,-1.73168 -2.63705,1.3649 -0.95522,1.8472 -1.36097,3.71067 -0.90167,4.14104 0.45931,0.43037 24.4601,9.77892 53.3351,20.77454 28.875,10.99563 82.81175,31.55641 119.85944,45.69062 37.04769,14.13421 68.09769,25.49259 69,25.24083 4.4145,-1.2317 266.7274,-96.96334 267.28245,-97.54529 0.35303,-0.37015 -0.19892,-6.073 -1.22658,-12.673 l -1.86846,-12 5.22658,-18.74398 5.22657,-18.74398 8.75,-0.006 c 4.8125,-0.003 8.76834,0.33148 8.79077,0.74398 0.0224,0.4125 1.95916,14.86049 4.30387,32.10665 2.8181,20.7281 3.90589,31.48416 3.20923,31.73285 -24.06469,8.59065 -243.09124,87.36171 -270.05387,97.12261 -9.9,3.58396 -20.96035,7.53685 -24.57854,8.7842 l -6.57855,2.26791 -13.92145,-5.26916 z M 262,224.38985 c -15.675,-5.77561 -28.81552,-10.81357 -29.20115,-11.19548 -0.38564,-0.3819 12.55186,-0.56877 28.75,-0.41526 L 291,213.05821 v 10.9709 c 0,6.03399 -0.1125,10.94636 -0.25,10.91637 -0.1375,-0.03 -13.075,-4.78002 -28.75,-10.55563 z m 246,-2.77322 V 213 h 26.41821 c 14.53002,0 27.24252,-0.29123 28.25,-0.64718 1.22113,-0.43143 1.49842,-0.31383 0.83179,0.35275 -0.75167,0.75162 -40.6918,13.41478 -53.75,17.04164 -1.56888,0.43575 -1.75,-0.40577 -1.75,-8.13058 z M 41,189.02071 v -16.9793 L 20.75,171.77071 0.5,171.5 0.19780127,166.81348 -0.10439746,162.12695 3.6978013,161.81348 7.5,161.5 7.7690657,139.27468 8.0381313,117.04936 24.269066,116.77468 40.5,116.5 V 114 c 0,-2.47076 -0.119409,-2.50585 -10.208866,-3 l -10.208865,-0.5 2.960702,-4.75 2.960702,-4.75 H 56.501837 87 v 5 5 h -9.566422 -9.566423 l 0.316423,2.75 0.316422,2.75 9.25,0.28753 9.25,0.28752 V 122.03753 127 H 77.5 68 v 17.5 17.5 h 9.554791 9.554791 l -0.304791,4.75 -0.304791,4.75 -9,0.13686 -9,0.13686 -0.273614,17.11314 L 67.952772,206 H 54.476386 41 Z M 40.773614,144.25 41.047228,127 H 34.523614 28 v 16.83333 c 0,9.25834 0.319633,17.15297 0.710296,17.54363 0.390662,0.39067 3.203162,0.57817 6.25,0.41667 L 40.5,161.5 Z m 52.467467,9.5 L 93.5,101.5 113.75,101.22929 134,100.95859 V 98.529403 96.100218 L 149.0015,95.800109 164.00299,95.5 164.0015,98.25 164,101 h 13 13 v 5.48783 5.48783 L 152.75,112.23783 115.5,112.5 115.24011,159.25 114.98022,206 H 103.98119 92.982161 Z m 106.961679,47.80912 c -6.21349,-2.37615 -11.57599,-4.59901 -11.91667,-4.9397 -0.34068,-0.34068 2.83058,-0.61942 7.04724,-0.61942 5.46863,0 7.66562,-0.35838 7.66299,-1.25 -0.002,-0.6875 -1.35036,-8.225 -2.99632,-16.75 -1.64596,-8.525 -2.9943,-15.6125 -2.99632,-15.75 -0.002,-0.1375 5.34754,-0.25 11.88791,-0.25 11.5042,0 11.90931,0.0733 12.4355,2.25 0.29915,1.2375 1.71539,8.30495 3.1472,15.70545 1.4318,7.4005 2.81984,13.67201 3.08452,13.93669 0.26468,0.26468 0.35972,-9.39027 0.21121,-21.45545 L 227.5,150.5 211.75,150.22461 196,149.94921 V 145 140.05079 l 15.75,-0.2754 L 227.5,139.5 v -6 -6 L 211.75,127.22461 196,126.94921 V 121.97461 117 h 47.5 47.5 v 5 5 h -16.04772 -16.04771 l 0.29771,6.25 0.29772,6.25 15.75,0.27539 15.75,0.2754 v 4.9746 V 150 h -16 -16 v 21.66667 c 0,11.91666 0.20755,21.45912 0.46121,21.20545 0.25367,-0.25367 1.62593,-6.51617 3.04946,-13.91667 1.42353,-7.4005 2.82131,-14.24295 3.10617,-15.20545 0.45569,-1.53969 1.94894,-1.75 12.42555,-1.75 H 289.95 l -0.65051,3.25 c -0.35778,1.7875 -1.82536,9.325 -3.26128,16.75 l -2.61078,13.5 3.78629,0.3075 L 291,196.115 V 201.0575 206 l -39.75,-0.0603 -39.75,-0.0603 z M 508,154 v -52 h 12.93664 12.93664 l 0.31336,-3.25 0.31336,-3.25 9.18391,-0.286651 9.18391,-0.286651 0.31609,3.286651 C 553.38725,100.32766 554.03504,101.5 555,101.5 c 0.96496,0 1.61275,-1.17234 1.81609,-3.286651 l 0.31609,-3.286651 9.18391,0.286651 L 575.5,95.5 l 0.31336,3.25 0.31336,3.25 h 12.94615 12.94616 l -0.25952,48.71794 -0.25951,48.71794 -8.5,3.20673 -8.5,3.20673 -38.25,0.0753 L 508,206 Z m 26,11.92668 c 0,-27.15046 -0.11574,-29.05106 -1.75,-28.73668 -1.61082,0.30987 -1.7711,2.62213 -2.01534,29.07332 C 529.974,194.49399 530.00482,195 531.98466,195 533.9589,195 534,194.40708 534,165.92668 Z M 556.76534,166.25 C 556.53672,141.47904 556.2924,137.5 555,137.5 c -1.2924,0 -1.53672,3.97904 -1.76534,28.75 C 552.97334,194.56519 553.00004,195 555,195 c 1.99996,0 2.02666,-0.43481 1.76534,-28.75 z m 23,0.0133 C 579.5211,139.81213 579.36082,137.49987 577.75,137.19 576.11574,136.87562 576,138.77622 576,165.92668 576,194.40708 576.0411,195 578.01534,195 c 1.97984,0 2.01066,-0.50601 1.75,-28.73668 z M 534,118.92668 c 0,-5.24433 -0.23887,-6.02787 -1.75,-5.74029 -1.38044,0.26272 -1.81333,1.54526 -2.0499,6.07333 -0.27261,5.21773 -0.1133,5.74028 1.75,5.74028 1.84152,0 2.0499,-0.61738 2.0499,-6.07332 z m 22.7999,0.32332 c -0.22485,-4.31115 -0.67525,-5.75 -1.7999,-5.75 -1.12465,0 -1.57505,1.43885 -1.7999,5.75 -0.27485,5.26965 -0.12449,5.75 1.7999,5.75 1.92439,0 2.07475,-0.48035 1.7999,-5.75 z m 23,0.01 c -0.23657,-4.52807 -0.66946,-5.81061 -2.0499,-6.07333 -1.51113,-0.28758 -1.75,0.49596 -1.75,5.74029 0,5.45594 0.20838,6.07332 2.0499,6.07332 1.8633,0 2.02261,-0.52255 1.75,-5.74028 z m 74.386,86.22104 c 0.70096,-0.70095 41.0273,-14.60855 41.34168,-14.25776 0.13654,0.15235 0.56937,3.5395 0.96183,7.527 l 0.71357,7.25 h -21.76816 c -11.97248,0 -21.5345,-0.23366 -21.24892,-0.51924 z m 60.30915,-7.73076 5.63909,-7.25 -6.06707,-0.29772 L 708,189.90457 V 166.95228 144 h 48.5 48.5 v 22.95431 22.95431 l -6.62093,0.29569 -6.62094,0.29569 5.67805,7.25 5.67805,7.25 H 790.76112 778.408 l -10.23299,-14.49376 c -5.62815,-7.97157 -10.48394,-15.14772 -10.79066,-15.94701 -0.30671,-0.79929 0.26883,-2.58796 1.279,-3.97482 1.60925,-2.20937 2.58881,-2.52545 7.9118,-2.55299 l 6.07514,-0.0314 3.92486,5.47843 c 2.15867,3.01314 4.26235,5.48814 4.67485,5.5 C 781.6625,178.9903 782,173.375 782,166.5 V 154 H 756.5 731 v 9.5 c 0,5.225 0.3712,9.5 0.82489,9.5 0.45369,0 3.40233,-3.6 6.55254,-8 l 5.72766,-8 h 10.53079 c 5.79193,0 10.38079,0.37344 10.19745,0.82986 C 764.65,158.28628 756.85,169.0739 747.5,181.80236 l -17,23.14264 -10.82203,0.0275 -10.82202,0.0275 5.6391,-7.25 z M 611.44696,194.2779 c 0.37139,-0.96782 5.82866,-19.08871 12.12727,-40.26864 6.29861,-21.17994 11.70144,-39.29648 12.00628,-40.25898 0.50992,-1.61 -0.57113,-1.75 -13.51312,-1.75 L 608,112 v -5.5 -5.5 h 15.52475 15.52475 l 0.93219,-2.451849 c 0.92916,-2.443879 0.98443,-2.452819 17.00125,-2.75 L 673.05199,95.5 672.44654,98.25 671.84109,101 H 684.42054 697 v 5.5 5.5 h -14.2882 -14.28821 l -9.8707,34.25 c -5.42889,18.8375 -10.3617,34.78346 -10.9618,35.43547 -0.6001,0.65201 -7.84109,3.65076 -16.09109,6.66389 -8.25,3.01312 -16.28886,5.97555 -17.86414,6.58317 -2.55429,0.98524 -2.7911,0.91439 -2.1889,-0.65491 z M 123,154 v -5 h 22.54969 c 17.92578,0 22.38571,0.25914 21.75,1.26375 -0.43983,0.69506 -1.92469,2.93949 -3.29969,4.98762 l -2.5,3.72387 -19.25,0.0124 L 123,159 Z m 3,-15.5 c 0,-7.33333 -0.0556,-7.5 -2.5,-7.5 -2.36364,0 -2.5,-0.3 -2.5,-5.5 0,-5.2 0.13636,-5.5 2.5,-5.5 1.83333,0 2.5,-0.53333 2.5,-2 0,-1.89744 0.66667,-2 13,-2 12.33333,0 13,0.10256 13,2 0,1.62897 0.66667,2 3.59362,2 2.75262,0 3.71602,-0.46805 4.11663,-2 0.48716,-1.86288 1.36402,-2 12.78975,-2 11.42573,0 12.30259,0.13712 12.78975,2 0.31292,1.1966 1.36401,2 2.61663,2 1.87105,0 2.09362,0.58469 2.09362,5.5 0,5.2 -0.13636,5.5 -2.5,5.5 -2.44444,0 -2.5,0.16667 -2.5,7.5 V 146 H 155.5 126 Z m 33.81336,-4.25 c 0.30708,-3.18486 0.23191,-3.25 -3.75,-3.25 -3.9903,0 -4.06336,0.064 -4.06336,3.56037 0,3.5027 0.0607,3.55533 3.75,3.25 3.42358,-0.28335 3.77728,-0.59327 4.06336,-3.56037 z M 708,129.5 V 118 H 756.5 805 V 129.5 141 H 756.5 708 Z m 73.81642,0.25 0.31642,-2.75 H 756.56642 731 v 2.33333 c 0,1.28334 0.30768,2.64102 0.68374,3.01707 0.37605,0.37606 11.73855,0.56356 25.25,0.41667 L 781.5,132.5 Z M 708,109 v -6 h 3.0879 c 3.01456,0 3.0728,-0.0891 2.45233,-3.75 l -0.63557,-3.75 11.3749,0.307626 c 11.30166,0.305645 11.38175,0.324959 12.44128,3 L 737.78724,101.5 737.89362,98.75 738,96 h 16.5 16.5 l 0.0354,2.75 0.0354,2.75 1.38005,-2.5 c 1.33818,-2.424141 1.7768,-2.515172 14.45488,-3 12.73065,-0.486838 13.05797,-0.447354 12.43465,1.5 -1.3149,4.10797 -0.91357,4.99295 2.40955,5.31336 l 3.25,0.31336 V 109.06336 115 h -8.5 c -7.83333,0 -8.5,-0.15686 -8.5,-2 0,-1.95699 -0.66667,-2 -31,-2 -30.33333,0 -31,0.043 -31,2 0,1.85185 -0.66667,2 -9,2 h -9 v -6 z m -511.75364,2.75 c 0.25318,-0.6875 1.68828,-4.9625 3.18911,-9.5 L 202.16424,94 h 14.41788 C 224.51195,94 231,94.328832 231,94.730737 c 0,0.401906 -1.41158,4.676906 -3.13685,9.500003 L 224.72631,113 h -14.47014 c -11.15496,0 -14.36468,-0.28638 -14.00981,-1.25 z m 64.48578,-2.75 -1.57125,-4 h -14.58044 c -8.01925,0 -14.58008,-0.1125 -14.57964,-0.25 4.5e-4,-0.1375 0.8551,-2.5 1.89922,-5.25 l 1.8984,-5 25.37736,-0.26643 25.37737,-0.26643 3.13465,9.51643 L 290.82245,113 H 276.56292 262.30338 Z M 1,110.42447 c 0,-0.31654 1.8005487,-3.65849 4.0012193,-7.42656 l 4.0012193,-6.851032 8.5011154,-0.323439 c 4.675613,-0.177891 8.500064,-0.196418 8.49878,-0.04117 -0.0013,0.155248 -1.914834,3.637969 -4.252334,7.739381 l -4.25,7.45711 -8.25,0.0106 C 4.7125,110.99522 1,110.74101 1,110.42447 Z"
       id="path162"
       inkscape:connector-curvature="0" />
    <path
       d="M 386.49612,291.5099 C 369.37352,285.00522 295.12855,256.8897 279.5,250.99198 c -9.9,-3.73594 -33.075,-12.50615 -51.5,-19.48934 -60.12266,-22.78689 -78.33313,-29.62956 -89.24653,-33.5348 -5.9106,-2.11504 -11.16979,-4.10711 -11.6871,-4.42682 -0.51731,-0.31972 1.2415,-4.2787 3.90846,-8.79775 l 4.84902,-8.21645 -4.20094,-6.01341 c -2.31051,-3.30738 -4.54744,-6.57591 -4.97094,-7.26341 -0.59696,-0.96908 1.54682,-1.24884 9.53901,-1.24484 L 146.5,162.01032 150,167.5 c 1.925,3.01932 3.82861,5.492 4.23025,5.49484 C 154.6319,172.99768 158.57828,167.6 163,161 l 8.03949,-12 H 179.51975 188 v 3.44087 c 0,2.69378 -1.64055,5.71415 -7.55593,13.91096 l -7.55593,10.47009 4.11912,8.19252 c 2.26551,4.50588 3.90092,8.41072 3.63423,8.6774 -0.95196,0.95196 -23.1739,-7.78626 -24.84086,-9.76804 -1.68136,-1.99891 -1.71669,-1.9868 -3.33509,1.14285 -0.89966,1.73973 -1.25994,3.52059 -0.80064,3.95745 0.45931,0.43686 19.9601,8.08202 43.3351,16.98924 23.375,8.90722 65.225,24.87684 93,35.48805 110.23112,42.11289 103.96096,39.84985 107.386,38.75798 8.19059,-2.6111 265.20412,-96.46906 265.81709,-97.07292 0.3867,-0.38094 -0.1309,-6.37764 -1.15021,-13.326 l -1.8533,-12.63338 5.214,-17.86353 5.214,-17.86354 8.68621,-0.28893 c 4.77742,-0.15892 8.68621,-0.0837 8.68621,0.16726 0,0.25091 1.79751,13.65593 3.99447,29.78894 2.19696,16.133 3.99061,30.45773 3.98589,31.83273 -0.008,2.38703 -1.87199,3.16503 -41.24447,17.21655 -40.36368,14.40528 -83.79854,29.99916 -110.73589,39.75616 -7.425,2.68941 -41.85,15.06784 -76.5,27.50761 -34.65,12.43977 -65.25174,23.44794 -68.00388,24.4626 -4.97372,1.83372 -5.04001,1.83111 -11,-0.43302 z M 261.73068,224.12902 232.96136,213.5 l 28.6704,-0.26558 c 15.76872,-0.14607 28.84324,-0.0927 29.05449,0.1185 0.21124,0.21124 0.25576,5.11381 0.0989,10.8946 L 290.5,234.75803 Z M 508,221.56739 V 213 l 27.75,0.0789 c 15.2625,0.0434 27.3,0.25038 26.75,0.45991 -0.55,0.20953 -12.25,3.78784 -26,7.9518 -13.75,4.16396 -25.7875,7.81233 -26.75,8.10748 -1.57225,0.48213 -1.75,-0.33357 -1.75,-8.03075 z M 40.773614,188.75 40.5,171.5 20.25,171.22929 0,170.95859 v -4.41893 c 0,-4.38448 0.02923818,-4.42135 3.75,-4.72929 L 7.5,161.5 7.7690657,139.27468 8.0381313,117.04936 24.269066,116.77468 40.5,116.5 40.813096,113.78447 41.126192,111.06894 30.605956,110.78447 20.08572,110.5 l 2.968093,-4.76465 2.968093,-4.76464 30.239047,0.26464 L 86.5,101.5 l 0.304791,4.75 0.304791,4.75 H 77.554791 68 v 3 3 h 9.5 9.5 v 5 5 H 77.5 68 v 17.5 17.5 h 9.5 9.5 v 4.46247 4.46248 L 77.75,171.21247 68.5,171.5 68.226386,188.75 67.952772,206 H 54.5 41.047228 Z M 41,144.5 V 127 H 34.5 28 v 17.5 17.5 h 6.5 6.5 z m 52.241081,9.43878 0.258919,-52.06123 20,-0.18877 20,-0.18878 0.31642,-2.75 0.31642,-2.75 H 149 163.86716 l 0.31642,2.75 0.31642,2.75 h 12.75103 12.75103 l -0.001,5.23783 -0.001,5.23783 -37.25,0.26217 -37.25,0.26217 -0.25989,46.75 -0.25989,46.75 H 103.98125 92.982221 l 0.25892,-52.06122 z M 199.5,201.14947 187.5,196.5 l 7.75,-0.29206 c 6.6913,-0.25217 7.75,-0.53822 7.75,-2.09399 0,-0.99105 -1.35,-8.46733 -3,-16.61395 -1.65,-8.14662 -3,-14.96683 -3,-15.15602 0,-0.18919 5.4,-0.34398 12,-0.34398 6.6,0 12.00003,0.1125 12.00006,0.25 3.6e-4,1.38344 6.16055,31.24394 6.51968,31.60308 C 227.78388,194.11722 228,184.35833 228,172.16667 V 150 h -16 -16 v -4.97461 -4.9746 l 15.75,-0.2754 15.75,-0.27539 0.29772,-6.25 0.29771,-6.25 H 212.04772 196 v -5 -5 h 47.5 47.5 v 5 5 h -16 -16 v 6.5 6.5 h 16 16 v 5 5 h -16 -16 v 22.16667 c 0,12.19166 0.18397,21.97916 0.40883,21.75 0.22486,-0.22917 1.59536,-6.71667 3.04555,-14.41667 1.4502,-7.7 2.87155,-14.7875 3.15856,-15.75 0.45935,-1.54045 1.95872,-1.75 12.52184,-1.75 10.95921,0 11.95507,0.15178 11.48206,1.75 -0.28486,0.9625 -1.67879,7.825 -3.09762,15.25 -1.41883,7.425 -2.82141,14.2875 -3.11684,15.25 -0.45056,1.46787 0.11857,1.75 3.53023,1.75 H 291 v 5 5 l -39.75,-0.10053 -39.75,-0.10054 z m 309.16667,4.18386 C 508.3,204.96667 508,181.56667 508,153.33333 V 102 h 12.93664 12.93664 l 0.31336,-3.25 0.31336,-3.25 9.18391,-0.286651 9.18391,-0.286651 0.31609,3.286651 C 553.38725,100.32766 554.03504,101.5 555,101.5 c 0.96496,0 1.61275,-1.17234 1.81609,-3.286651 l 0.31609,-3.286651 9.18391,0.286651 L 575.5,95.5 l 0.31336,3.25 0.31336,3.25 h 12.94615 12.94616 l -0.25952,48.59833 -0.25951,48.59833 -9,3.39439 -9,3.39438 -37.08333,0.007 c -20.39584,0.004 -37.38334,-0.29272 -37.75,-0.65939 z M 534,165.92668 c 0,-27.15046 -0.11574,-29.05106 -1.75,-28.73668 -1.61082,0.30987 -1.7711,2.62213 -2.01534,29.07332 C 529.974,194.49399 530.00482,195 531.98466,195 533.9589,195 534,194.40708 534,165.92668 Z M 557,166 c 0,-28.33333 -0.046,-29 -2,-29 -1.95402,0 -2,0.66667 -2,29 0,28.33333 0.046,29 2,29 1.95402,0 2,-0.66667 2,-29 z m 23,0 c 0,-28.33333 -0.046,-29 -2,-29 -1.95402,0 -2,0.66667 -2,29 0,28.33333 0.046,29 2,29 1.95402,0 2,-0.66667 2,-29 z m -46,-46.57332 c 0,-5.72024 -0.22711,-6.5302 -1.75,-6.24101 -1.32662,0.25192 -1.82495,1.50907 -2.05981,5.19626 C 529.82426,124.12694 530.38446,126 532.46862,126 533.68848,126 534,124.66284 534,119.42668 Z m 22.5,-0.01 c 0,-4.5926 -0.33568,-5.91667 -1.5,-5.91667 -1.08573,0 -1.58556,1.3458 -1.80981,4.87294 -0.35842,5.63746 0.29202,7.96632 2.06034,7.37688 0.81158,-0.27052 1.24947,-2.49004 1.24947,-6.33315 z m 23,0.0833 c 0,-4.89314 -0.31629,-6.03352 -1.75,-6.30963 -1.52494,-0.29368 -1.75,0.51777 -1.75,6.30963 0,5.79186 0.22506,6.60331 1.75,6.30963 1.43371,-0.27611 1.75,-1.41649 1.75,-6.30963 z m 74.63215,86.03451 c 1.13634,-1.13634 40.8517,-14.36858 41.23539,-13.73868 0.2359,0.38729 0.75214,3.74167 1.14719,7.45417 l 0.71826,6.75 h -21.78316 c -11.98074,0 -21.57369,-0.20947 -21.31768,-0.46549 z m 60.43216,-7.78451 5.67854,-7.25 -6.12143,-0.29772 L 708,189.90457 V 166.95228 144 h 48.5 48.5 v 23 23 h -6.5 c -5.78608,0 -8.0295,0.93668 -5.69662,2.37848 0.44186,0.27309 2.94672,3.22464 5.56635,6.55902 L 803.1327,205 h -12.34837 -12.34838 l -10.27092,-14.55618 c -5.649,-8.0059 -10.51109,-15.18205 -10.80463,-15.94701 -0.29354,-0.76496 0.29278,-2.52554 1.30295,-3.9124 1.60876,-2.20869 2.58111,-2.52278 7.83665,-2.53142 l 6,-0.01 3.98923,5.56727 c 2.19408,3.062 4.33158,5.77886 4.75,6.03745 C 781.65766,179.90645 782,174.24148 782,167.05902 V 154 H 756.5 731 v 9.5 c 0,5.225 0.36344,9.5 0.80766,9.5 0.44421,0 3.45576,-3.6 6.69234,-8 l 5.88469,-8 h 10.35734 c 8.66751,0 10.22688,0.23228 9.55766,1.42366 -0.43983,0.78301 -8.22469,11.5676 -17.29969,23.96575 l -16.5,22.54209 -10.80712,0.0343 -10.80711,0.0342 5.67854,-7.25 z M 612,194.20053 c 0,-0.63358 21.10481,-72.65395 23.525,-80.27931 C 636.10671,112.08841 635.48742,112 622.06739,112 H 608 v -5.5 -5.5 h 15.93045 c 15.75912,0 15.93388,-0.0242 16.25,-2.25 0.31457,-2.214936 0.57318,-2.254284 16.59485,-2.524893 l 16.2753,-0.274892 -0.63371,2.524892 L 671.78318,101 H 684.39159 697 v 5.5 5.5 h -14.30407 -14.30407 l -9.92898,34.12759 c -5.46094,18.77017 -10.38661,34.69916 -10.94593,35.39776 C 646.65609,182.60056 614.5758,195 612.65482,195 612.29467,195 612,194.64024 612,194.20053 Z M 123.68804,158.35471 C 123.30962,157.97628 123,155.71667 123,153.33333 V 149 h 22.5936 22.5936 l -3.4108,4.75 -3.41079,4.75 -18.49477,0.27137 c -10.17212,0.14926 -18.80438,-0.0382 -19.1828,-0.41666 z M 126,138.5 c 0,-7.33333 -0.0556,-7.5 -2.5,-7.5 -2.36364,0 -2.5,-0.3 -2.5,-5.5 0,-5.2 0.13636,-5.5 2.5,-5.5 1.83333,0 2.5,-0.53333 2.5,-2 0,-1.89413 0.66667,-2 12.59362,-2 11.75262,0 12.62855,0.13356 13.11663,2 0.40975,1.56687 1.36402,2 4.40638,2 3.2167,0 3.88337,-0.34334 3.88337,-2 0,-1.89233 0.66667,-2 12.38337,-2 11.54236,0 12.41889,0.13583 12.90638,2 0.31292,1.1966 1.36401,2 2.61663,2 1.87105,0 2.09362,0.58469 2.09362,5.5 0,5.2 -0.13636,5.5 -2.5,5.5 -2.44444,0 -2.5,0.16667 -2.5,7.5 V 146 H 155.5 126 Z m 33.81336,-4.25 c 0.30708,-3.18486 0.23191,-3.25 -3.75,-3.25 -3.9903,0 -4.06336,0.064 -4.06336,3.56037 0,3.5027 0.0607,3.55533 3.75,3.25 3.42358,-0.28335 3.77728,-0.59327 4.06336,-3.56037 z M 708,129.5 V 118 H 756.5 805 V 129.5 141 H 756.5 708 Z m 73.5,0 v -3 h -24.9863 c -23.30889,0 -25.00969,0.12141 -25.33458,1.80841 -0.91009,4.72573 -0.80725,4.74369 25.54622,4.45911 L 781.5,132.5 Z M 708,109.10229 v -5.97557 l 3.25,-0.31336 c 3.27525,-0.31579 3.32103,-0.43102 2.01146,-5.06336 -0.45045,-1.59341 0.52746,-1.75 10.92887,-1.75 h 11.42359 l 1.08666,2.75 1.08666,2.75 0.10638,-2.75 L 738,96 h 16.43358 16.43358 l 0.37349,2.75 0.3735,2.75 1.16818,-2.75 1.16817,-2.75 h 13 13 l -0.97525,2.5651 C 797.46964,102.52515 797.73997,103 801.5,103 h 3.5 v 6 6 h -8.5 c -7.85337,0 -8.5,-0.15323 -8.5,-2.01425 0,-1.98166 -0.50553,-2.00997 -31.25,-1.75 -26.99367,0.22826 -31.25,0.46855 -31.25,1.76425 0,1.19703 -1.7673,1.55836 -8.75,1.78893 L 708,115.07787 Z M 197.392,109.25 c 0.7168,-2.0625 2.10844,-6.3375 3.09253,-9.5 L 202.27378,94 h 14.36311 C 224.5366,94 231,94.287464 231,94.638808 c 0,0.351344 -1.4625,4.623698 -3.25,9.494122 l -3.25,8.85531 -14.20564,0.006 -14.20564,0.006 1.30328,-3.75 z m 63.48985,-0.25 -1.19843,-4 h -14.84171 c -8.16294,0 -14.84134,-0.1125 -14.8409,-0.25 4.5e-4,-0.1375 0.8551,-2.5 1.89922,-5.25 l 1.8984,-5 25.37736,-0.26643 25.37737,-0.26643 3.13465,9.51643 L 290.82245,113 H 276.45137 262.08028 Z M 1,110.42447 c 0,-0.31654 1.8198495,-3.69154 4.0441101,-7.5 L 9.0882201,96 h 8.5125699 8.512569 l -2.617148,4.25 c -1.439431,2.3375 -3.348282,5.7125 -4.241892,7.5 L 17.629575,111 H 9.3147877 C 4.7416545,111 1,110.74101 1,110.42447 Z"
       id="path160"
       inkscape:connector-curvature="0" />
    <path
       d="m 370.5,285.33207 c -12.1,-4.58658 -31.45,-11.90999 -43,-16.27423 -30.42258,-11.49538 -87.95512,-33.28313 -126,-47.71659 -18.15,-6.88574 -42.3375,-15.96023 -53.75,-20.16553 -11.4125,-4.20531 -20.72978,-8.10269 -20.70506,-8.66086 0.0247,-0.55817 2.01147,-4.35436 4.41501,-8.43596 l 4.37008,-7.4211 -4.94549,-7.3289 L 125.93905,162 h 9.98798 9.98799 l 3.79249,5.45898 c 2.08587,3.00245 4.22642,5.3328 4.75677,5.17858 0.53036,-0.15423 4.5628,-5.53577 8.96098,-11.95899 L 171.42196,149 H 179.71098 188 v 3.36915 c 0,2.57638 -1.60115,5.57652 -6.80455,12.75 -3.7425,5.15947 -7.11338,9.8937 -7.49083,10.52053 -0.37746,0.62682 1.07889,4.89502 3.23633,9.48488 2.15743,4.58987 3.78255,8.48527 3.61137,8.65646 -0.79265,0.79264 -23.24439,-8.16215 -24.70785,-9.85463 -1.60962,-1.86154 -1.71236,-1.82484 -3.70585,1.32365 -1.12767,1.78104 -1.73269,3.49709 -1.34447,3.81344 0.38822,0.31634 3.85585,1.75728 7.70585,3.20209 3.85,1.44481 29.95,11.37707 58,22.07169 28.05,10.69463 74.85,28.5381 104,39.65217 29.15,11.11406 56.98266,21.7381 61.85035,23.60898 4.8677,1.87087 9.44439,3.40159 10.17043,3.40159 0.72604,0 37.24338,-13.07672 81.14965,-29.05938 C 517.57669,235.95797 577.8,214.06327 607.5,203.28574 c 29.7,-10.77754 54.11912,-19.68244 54.26472,-19.78868 0.1456,-0.10624 -0.5731,-6.11527 -1.59711,-13.35339 l -1.86183,-13.16022 5.22643,-17.74173 5.22644,-17.74172 8.62067,-0.28893 c 4.74138,-0.15892 8.61699,0.0661 8.61248,0.5 -0.005,0.43391 1.83561,14.42232 4.08917,31.08535 2.25356,16.66304 3.87356,30.8797 3.59999,31.59259 -0.27356,0.71289 -4.70119,2.76056 -9.83917,4.55037 -9.45993,3.29536 -179.70424,64.45763 -189.84179,68.2029 -3.025,1.11757 -20.575,7.44216 -39,14.05465 -18.425,6.61248 -38.45,13.81264 -44.5,16.00036 -6.05,2.18771 -12.575,4.53934 -14.5,5.22584 -3.32423,1.1855 -4.60486,0.82938 -25.5,-7.09106 z M 261.7939,224.10039 233.0878,213.5 l 28.60719,-0.26558 c 15.73394,-0.14607 28.78001,-0.0927 28.99126,0.1185 0.21124,0.21124 0.25576,5.10093 0.0989,10.86597 L 290.5,234.70078 Z M 508,221.60699 V 213 h 27.16667 c 14.94166,0 26.97916,0.16939 26.75,0.37642 -0.22917,0.20703 -11.89167,3.8731 -25.91667,8.14681 -14.025,4.27371 -26.0625,7.97746 -26.75,8.23056 -0.93882,0.34563 -1.25,-1.68244 -1.25,-8.1468 z M 40.773614,188.75 40.5,171.5 20.25,171.22929 0,170.95859 V 166.47929 162 H 4 8 V 139.5 117 H 24.5 41 v -3 -3 H 30.570396 20.140793 l 2.515098,-4.5 2.515098,-4.5 H 56.085495 87 v 4.5 4.5 H 77.5 68 v 3 3 h 9.5 9.5 v 5 5 H 77.5 68 v 17.5 17.5 h 9.5 9.5 v 4.46247 4.46248 L 77.75,171.21247 68.5,171.5 68.226386,188.75 67.952772,206 H 54.5 41.047228 Z M 41,144.5 V 127 H 34.5 28 v 17.5 17.5 h 6.5 6.5 z m 52.666667,60.83333 C 93.3,204.96667 93,181.57598 93,153.35404 v -51.31263 l 20.25,-0.2707 L 133.5,101.5 133.81642,98.75 134.13284,96 H 149 163.86716 l 0.31642,2.75 0.31642,2.75 12.75,0.27988 12.75,0.27987 V 107.02988 112 H 152.5 115 v 47 47 h -10.33333 c -5.683337,0 -10.633337,-0.3 -11.000003,-0.66667 z M 200,201.20837 187.5,196.5 l 7.75,-0.29206 c 6.6565,-0.25086 7.75,-0.54337 7.75,-2.07316 0,-1.50823 -3.93721,-22.77322 -5.53317,-29.88478 -0.50169,-2.23555 -0.42854,-2.25 11.3928,-2.25 h 11.89774 l 3.16014,16.20549 c 1.73807,8.91301 3.36766,16.41301 3.62131,16.66666 C 227.79247,195.1258 228,185.13333 228,172.66667 V 150 h -16 -16 v -5 -5 h 16 16 v -6.5 -6.5 h -16 -16 v -5 -5 h 47.5 47.5 v 5 5 h -16 -16 v 6.5 6.5 h 16 16 v 5 5 h -16 -16 l 0.079,22.25 c 0.0434,12.2375 0.27702,21.77419 0.51912,21.19265 0.24209,-0.58155 1.74937,-7.71185 3.3495,-15.84512 1.60013,-8.13327 3.10633,-14.98477 3.34711,-15.22554 0.24077,-0.24078 5.58571,-0.31047 11.87763,-0.15488 l 11.4398,0.28289 -2.77071,14.5 c -1.52389,7.975 -3.0202,15.5125 -3.32513,16.75 -0.50565,2.05208 -0.20088,2.25 3.46463,2.25 H 291 v 5 5 l -39.25,-0.0416 -39.25,-0.0416 -12.5,-4.70836 z m 308.66667,4.12496 C 508.3,204.96667 508,181.56667 508,153.33333 V 102 h 13 13 v -3 -3 h 9.5 9.5 v 3 c 0,2.33333 0.44444,3 2,3 1.55556,0 2,-0.66667 2,-3 v -3 h 9.5 9.5 v 3 3 h 13.00951 13.00952 l -0.25952,48.64232 -0.25951,48.64232 -9,3.30371 -9,3.3037 -37.08333,0.054 c -20.39584,0.0297 -37.38334,-0.24602 -37.75,-0.61269 z M 533.7651,166.16705 C 534.02561,137.50609 533.99524,137 532.0151,137 530.04156,137 530,137.59462 530,165.83333 c 0,15.85834 0.30938,29.14271 0.6875,29.52084 2.41656,2.41656 2.82561,-1.46273 3.0776,-29.18712 z m 46.00012,-0.0715 c 0.26422,-29.12905 0.25742,-29.2374 -1.8166,-28.91706 -2.05527,0.31745 -2.0806,0.68352 -1.9862,28.71399 0.0526,15.61584 0.34879,28.80209 0.65824,29.30278 0.30944,0.5007 1.08388,0.73677 1.72098,0.52462 0.83441,-0.27786 1.23253,-8.56257 1.42358,-29.62433 z M 557,166 c 0,-28.33333 -0.046,-29 -2,-29 -1.95402,0 -2,0.66667 -2,29 0,28.33333 0.046,29 2,29 1.95402,0 2,-0.66667 2,-29 z m -23,-46.5 c 0,-5.83333 -0.20513,-6.5 -2,-6.5 -1.77143,0 -2,0.66667 -2,5.83333 0,6.05063 0.41527,7.16667 2.66667,7.16667 0.97436,0 1.33333,-1.75 1.33333,-6.5 z m 22.79772,-0.32937 C 557.07026,113.52181 556.92227,113 555.04772,113 553.21812,113 553,113.62136 553,118.83333 c 0,3.20834 0.30938,6.14271 0.6875,6.52084 1.71849,1.71849 2.83618,-0.50361 3.11022,-6.18354 z m 23,0.0693 C 580.06638,113.60899 579.90426,113 578.13654,113 c -1.69353,0 -2.0048,0.82455 -2.29772,6.08655 -0.36826,6.61543 -0.20605,7.12901 2.11242,6.68798 1.1614,-0.22093 1.62322,-1.8553 1.84648,-6.53457 z M 657,204.28107 c 0.825,-0.30858 9.69712,-3.37597 19.71582,-6.81644 20.32107,-6.97836 18.60508,-7.17637 19.80568,2.28537 l 0.66618,5.25 -20.84384,-0.0789 C 664.87973,204.87763 656.175,204.58964 657,204.28107 Z m 57.45741,-6.22769 C 717.50583,194.23274 720,190.8802 720,190.60329 c 0,-0.27692 -2.5875,-0.63844 -5.75,-0.80339 L 708.5,189.5 V 167 144.5 h 48 48 l 0.26877,22.75 0.26878,22.75 h -6.51878 C 794.93345,190 792,190.28773 792,190.63941 c 0,0.35168 2.4944,3.72668 5.5431,7.5 L 803.0862,205 790.7931,204.9857 778.5,204.9714 768.03624,190.09441 c -5.75507,-8.18235 -10.6047,-15.2998 -10.77696,-15.81657 -0.17226,-0.51677 0.6316,-2.14069 1.78634,-3.60871 1.83938,-2.33839 2.80304,-2.66646 7.77696,-2.64756 l 5.67742,0.0216 3.98923,5.56727 c 2.19408,3.062 4.33158,5.77886 4.75,6.03745 C 781.65766,179.90645 782,174.24148 782,167.05902 V 154 H 756.5 731 v 10 c 0,5.5 0.18463,10 0.4103,10 0.22566,0 3.24325,-3.825 6.70574,-8.5 l 6.29545,-8.5 h 10.34395 c 8.44144,0 10.19686,0.24986 9.54425,1.35847 -0.43983,0.74716 -8.22469,11.52334 -17.29969,23.94705 l -16.5,22.58858 -10.79259,0.0529 -10.7926,0.053 z m -102.12495,-5.24186 c 0.46559,-1.85505 20.68608,-70.55364 23.27068,-79.06152 0.48884,-1.60914 -0.60487,-1.75 -13.58801,-1.75 h -14.11965 l 0.30226,-5.25 0.30226,-5.25 15.64783,-0.27487 15.64784,-0.27488 0.62122,-2.475124 L 641.0381,96 h 16 16 l -0.62746,2.5 -0.62746,2.5 H 684.39159 697 v 5.5 5.5 h -14.32607 -14.32607 l -9.80519,33.75 c -5.39285,18.5625 -10.13995,34.3812 -10.54911,35.15266 -0.40916,0.77147 -7.83464,4.02254 -16.50105,7.22461 -21.52282,7.95225 -19.87943,7.55047 -19.16005,4.68425 z M 123,153.5 V 149 h 22.54804 22.54804 L 165,153.5 161.90392,158 H 142.45196 123 Z m 3,-15.5 c 0,-6.8 -0.0714,-7 -2.5,-7 -2.36364,0 -2.5,-0.3 -2.5,-5.5 0,-5.2 0.13636,-5.5 2.5,-5.5 1.83333,0 2.5,-0.53333 2.5,-2 0,-1.89233 0.66667,-2 12.38337,-2 11.54236,0 12.41889,0.13583 12.90638,2 0.41556,1.58911 1.36401,2 4.61663,2 3.42695,0 4.09362,-0.32571 4.09362,-2 0,-1.89333 0.66667,-2 12.5,-2 11.83333,0 12.5,0.10667 12.5,2 0,1.46667 0.66667,2 2.5,2 2.36364,0 2.5,0.3 2.5,5.5 0,5.2 -0.13636,5.5 -2.5,5.5 -2.42857,0 -2.5,0.2 -2.5,7 v 7 H 155.5 126 Z m 33.81336,-3.75 c 0.31217,-3.23765 0.29601,-3.25 -4.25,-3.25 -4.34408,0 -4.56336,0.13615 -4.56336,2.83333 0,3.7296 0.73917,4.31987 4.96426,3.96426 3.18464,-0.26804 3.56686,-0.62032 3.8491,-3.54759 z M 708.21725,129.75 708.5,118.5 756.75,118.2404 805,117.98079 V 129.4904 141 H 756.46725 707.9345 Z m 73.59611,0 L 781.5,126.5 h -24.9863 c -23.30889,0 -25.00969,0.12141 -25.33458,1.80841 C 730.28041,132.97504 730.41795,133 757.03197,133 h 25.09475 z M 708,109.06336 v -5.93664 l 3.25,-0.31336 c 3.32116,-0.32022 3.48581,-0.64721 2.2978,-4.56336 C 712.8677,96.008147 712.90658,96 724.28795,96 h 11.42273 l 1.04257,3.25 1.04257,3.25 0.10209,-3.25 L 738,96 h 16.43358 16.43358 l 0.37349,2.75 0.3735,2.75 1.16818,-2.75 1.16817,-2.75 h 13 13 l -0.97525,2.5651 C 797.46964,102.52515 797.73997,103 801.5,103 h 3.5 v 6 6 h -8.5 c -7.83333,0 -8.5,-0.15686 -8.5,-2 0,-1.95767 -0.66667,-2 -31.5,-2 -30.83333,0 -31.5,0.0423 -31.5,2 0,1.84314 -0.66667,2 -8.5,2 H 708 Z M 199.30678,103.5 202.43602,94 h 14.28199 C 224.5731,94 231,94.287464 231,94.638808 c 0,0.351344 -1.4625,4.623698 -3.25,9.494122 l -3.25,8.85531 -14.16123,0.006 -14.16122,0.006 3.12923,-9.5 z m 61.70155,5.52523 -1.3118,-3.97477 -14.738,-0.27523 -14.73801,-0.27523 1.95963,-5.25 1.95962,-5.25 25.18012,0.01193 25.18011,0.01193 3.18258,9.48808 3.18257,9.48807 h -14.27252 -14.27251 l -1.31179,-3.97477 z M 1,110.42483 c 0,-0.31634 1.8512846,-3.69134 4.1139659,-7.5 L 9.2279317,96 h 8.3074763 8.307476 l -4.171442,7.47843 -4.171442,7.47842 -8.25,0.0216 C 4.7125,110.99029 1,110.74117 1,110.42483 Z"
       id="path158"
       inkscape:connector-curvature="0" />
    <path
       d="m 356.5,279.91713 c -18.7,-7.11918 -48.175,-18.30636 -65.5,-24.86039 -17.325,-6.55402 -47.7,-18.05063 -67.5,-25.548 -33.1902,-12.56764 -66.90106,-25.21267 -87.28003,-32.73896 -4.55402,-1.68187 -8.50059,-3.41482 -8.77015,-3.85098 -0.26957,-0.43617 1.57442,-4.28506 4.09776,-8.5531 l 4.58788,-7.76008 -5.07695,-7.30281 L 125.98157,162 h 9.97195 9.97196 L 150,168 c 2.24099,3.3 4.21972,6 4.39719,6 0.17746,0 4.04873,-5.625 8.60281,-12.5 L 171.28015,149 H 179.64008 188 v 3.16654 c 0,2.35384 -1.95057,5.86941 -7.60001,13.69771 l -7.60001,10.53117 4.02056,8.80229 c 2.2113,4.84126 3.91794,8.80229 3.79253,8.80229 -2.1343,0 -24.15193,-9.2115 -24.8044,-10.3774 -1.35347,-2.41852 -2.258,-2.00058 -4.11975,1.90356 -1.64949,3.45901 -1.63873,3.54255 0.56478,4.38686 24.71459,9.46978 128.52773,49.12014 213.7463,81.6382 14.025,5.35172 25.95064,9.74203 26.50143,9.75625 0.55078,0.0142 6.62578,-2.03672 13.5,-4.55765 6.87421,-2.52093 25.09857,-9.16001 40.49857,-14.7535 15.4,-5.5935 34.525,-12.55601 42.5,-15.47224 7.975,-2.91623 50.05,-18.22006 93.5,-34.00851 43.45,-15.78845 79.15295,-28.85382 79.33989,-29.03415 0.18694,-0.18033 -0.37556,-5.20646 -1.25,-11.1692 -2.09973,-14.31789 -2.03525,-16.02859 0.98636,-26.16761 1.41694,-4.75453 3.68141,-12.35711 5.03215,-16.89461 l 2.45589,-8.25 h 8.25757 8.25757 l 2.75147,20.25 c 1.5133,11.1375 3.4641,25.34634 4.33509,31.57519 0.89696,6.41455 1.20431,11.66101 0.70882,12.09968 -0.48115,0.42598 -18.19981,6.97014 -39.37481,14.54259 -21.175,7.57245 -51.55,18.47146 -67.5,24.22001 -15.95,5.74855 -44.075,15.87059 -62.5,22.49343 -18.425,6.62283 -38.225,13.74429 -44,15.82546 -24.3664,8.78106 -65.28456,23.49315 -75.38087,27.10313 -5.98448,2.13978 -11.60948,3.85926 -12.5,3.82106 C 391.22861,292.89236 375.2,287.03632 356.5,279.91713 Z M 263,224.43471 c -14.025,-5.2034 -26.4,-9.87441 -27.5,-10.38004 -1.27454,-0.58585 8.42845,-0.94386 26.75,-0.98699 L 291,213 v 10.5 c 0,7.76122 -0.32605,10.48636 -1.25,10.44772 -0.6875,-0.0288 -12.725,-4.30961 -26.75,-9.51301 z m 246,-3.08352 V 213 l 26.75,0.10209 c 20.8085,0.0794 25.97261,0.34264 23.25,1.1851 -1.925,0.59566 -13.9625,4.30775 -26.75,8.2491 L 509,229.70238 Z M 41,188 V 171 H 20.5 0 V 166.5 162 H 4 8 V 139.5 117 H 24.5 41 v -3 -3 H 31 c -5.5,0 -10,-0.27623 -10,-0.61385 0,-0.33761 0.982863,-2.36261 2.184141,-4.5 L 25.368282,102 h 30.573065 30.573065 l -0.3579,4.5 -0.357899,4.5 H 76.899306 68 v 3 3 l 9.25,-7.8e-4 9.25,-7.7e-4 -0.124456,4.75077 L 86.251088,126.5 77.375544,126.6369 68.5,126.7738 68.226926,144.3869 67.953851,162 H 77.226926 86.5 v 4.5 4.5 H 77.25 68 v 17 17 H 54.5 41 Z M 40.773074,144.37418 40.5,126.74836 h -6 -6 L 28.226926,144.37418 27.953851,162 H 34.5 41.046149 Z M 93.5,153.5 V 102 H 113.75 134 v -3 -3 h 15 15 v 3 3 h 13 13 v 5 5 H 152.5 115 V 158.5 205 H 104.25 93.5 Z m 105,47.13114 -11,-4.13114 8.30427,-0.29132 c 7.28197,-0.25546 8.24378,-0.50167 7.81288,-2 -0.27027,-0.93977 -1.65862,-7.78368 -3.08522,-15.20868 -1.4266,-7.425 -2.76277,-14.2875 -2.96926,-15.25 -0.3408,-1.58858 0.70702,-1.75 11.3594,-1.75 h 11.73484 l 2.7428,14.75 c 1.50855,8.1125 3.13029,15.65 3.60387,16.75 0.51716,1.20123 0.88809,-7.08601 0.92874,-20.75 L 228,150 h -16 -16 v -5 -5 h 16 16 v -6.5 -6.5 h -16 -16 v -5 -5 h 47.5 47.5 v 5 5 h -16 -16 v 6.5 6.5 h 16 16 v 5 5 h -16 -16 v 17.86043 c 0,9.82323 -0.28617,19.94823 -0.63592,22.5 -0.38836,2.83333 -0.24908,4.63957 0.35775,4.63957 0.54652,0 2.20006,-6.1875 3.67453,-13.75 1.47447,-7.5625 2.92424,-14.9875 3.22171,-16.5 l 0.54084,-2.75 h 11.71139 11.7114 l -3.27757,16.67995 c -1.80265,9.17398 -3.0478,16.90971 -2.76699,17.19053 0.28082,0.28081 1.96234,0.53733 3.73672,0.57004 3.06958,0.0566 3.24106,0.26572 3.53364,4.30948 L 291.115,205 250.3075,204.88114 209.5,204.76228 Z M 509,153.52988 V 102.05975 L 521.75,101.77988 534.5,101.5 534.81642,98.75 535.13284,96 H 544.06642 553 v 3 c 0,2.33333 0.44444,3 2,3 1.55556,0 2,-0.66667 2,-3 v -3 h 9 9 v 3 3 h 13.5 13.5 v 48.36725 48.36725 l -8.30034,3.13275 L 585.39933,205 H 547.19966 509 Z M 534.7651,166.23667 535.03021,137 H 532.5151 530 v 28.83333 c 0,15.85834 0.31556,29.14889 0.70124,29.53457 0.38568,0.38568 1.39818,0.56718 2.25,0.40334 1.34895,-0.25947 1.58296,-4.06989 1.81386,-29.53457 z m 22,-0.0696 C 557.02561,137.50609 556.99524,137 555.0151,137 553.04156,137 553,137.59462 553,165.83333 c 0,15.85834 0.30938,29.14271 0.6875,29.52084 2.41656,2.41656 2.82561,-1.46273 3.0776,-29.18712 z M 580,166.5 V 137 h -2.5 -2.5 v 28.83333 c 0,15.85834 0.3,29.13334 0.66667,29.5 C 576.03333,195.7 577.15833,196 578.16667,196 579.90301,196 580,194.43939 580,166.5 Z m -45.20228,-47.25 c 0.291,-6.10912 0.24029,-6.25 -2.25,-6.25 -2.47175,0 -2.54772,0.19588 -2.54772,6.56955 0,6.24088 0.11257,6.55357 2.25,6.25 2.02087,-0.28701 2.28032,-0.95603 2.54772,-6.56955 z M 557,119.5 c 0,-5.83333 -0.20513,-6.5 -2,-6.5 -1.79487,0 -2,0.66667 -2,6.5 0,5.83333 0.20513,6.5 2,6.5 1.79487,0 2,-0.66667 2,-6.5 z m 23,0 c 0,-6.26667 -0.0897,-6.5 -2.5,-6.5 -2.38095,0 -2.5,0.27778 -2.5,5.83333 0,6.31706 0.37541,7.16667 3.16667,7.16667 1.58974,0 1.83333,-0.86364 1.83333,-6.5 z m 77.08333,85.13397 c 1.65581,-1.45459 37.18362,-12.75165 37.84113,-12.03264 0.452,0.49427 1.07139,3.48617 1.37642,6.64867 l 0.55461,5.75 h -20.09441 c -11.05193,0 -19.90691,-0.16471 -19.67775,-0.36603 z m 57.78442,-6.97213 c 3.32918,-4.07423 5.77087,-7.68988 5.42599,-8.03477 C 719.94885,189.28218 717.26667,189 714.33333,189 H 709 v -22 -22 h 48 48 v 22 22 h -6.33333 c -3.48334,0 -6.61071,0.27738 -6.94973,0.61639 -0.33901,0.33902 1.83599,3.69 4.83333,7.44662 2.99735,3.75662 5.44973,7.07925 5.44973,7.38361 0,0.30436 -5.2875,0.535 -11.75,0.51254 l -11.75,-0.0408 -10.87564,-15.55241 -10.87563,-15.5524 1.97746,-2.65676 c 1.66656,-2.23907 2.86134,-2.70379 7.59949,-2.95588 l 5.62205,-0.29913 4.27613,5.99521 c 2.35188,3.29737 4.61364,6.01947 5.02614,6.04913 0.4125,0.0297 0.75,-6.02882 0.75,-13.46326 v -13.51717 l -25.25,0.26717 -25.25,0.26717 -0.28498,10.25 c -0.15674,5.6375 0.0683,10.23051 0.5,10.20668 0.43174,-0.0238 2.98213,-3.15806 5.66753,-6.96497 7.29796,-10.34581 6.86992,-10.1121 17.91108,-9.77948 l 9.55266,0.28777 -17.23466,23.5 -17.23467,23.5 -10.78113,0.28477 -10.78113,0.28477 6.05305,-7.4077 z M 612,194.45968 c 0,-0.38884 2.66174,-9.53884 5.91498,-20.33333 C 626.45463,145.79117 636,113.32362 636,112.61213 636,112.27546 629.925,112 622.5,112 H 609 v -5 -5 h 15.05202 15.05202 l 1.0458,-3 1.04581,-3 h 15.87742 15.87743 l -0.91141,2.397177 c -0.50127,1.318448 -0.64013,2.668443 -0.30858,3.000003 0.33155,0.33155 6.15282,0.60282 12.93616,0.60282 H 697 v 5 5 h -14.4026 -14.4026 l -2.03957,6.75 c -1.12176,3.7125 -5.66578,19.32769 -10.09782,34.70042 -4.43203,15.37273 -8.39556,28.2424 -8.80783,28.59927 -0.41227,0.35686 -8.15034,3.30418 -17.19571,6.54958 -9.04538,3.2454 -16.80788,6.05073 -17.25,6.23406 C 612.36174,195.01667 612,194.84852 612,194.45968 Z M 123,153.5 V 149 h 22.56214 22.56213 l -3.23165,4.5 -3.23166,4.5 H 142.33048 123 Z m 2.79381,-15.75 c -0.26961,-6.65277 -0.47916,-7.27632 -2.54381,-7.56955 -1.98589,-0.28204 -2.25,-0.89829 -2.25,-5.25 0,-4.59248 0.17137,-4.93045 2.5,-4.93045 1.51154,0 2.5,-0.57048 2.5,-1.44285 0,-1.16381 2.41777,-1.50225 12.50182,-1.75 11.3574,-0.27903 12.50165,-0.14695 12.5,1.44285 -0.001,1.40768 0.87844,1.75 4.49818,1.75 3.61905,0 4.5,-0.34259 4.5,-1.75 0,-1.57333 1.2619,-1.75 12.5,-1.75 11.2381,0 12.5,0.17667 12.5,1.75 0,1.2 0.78571,1.75 2.5,1.75 2.35394,0 2.5,0.31137 2.5,5.3294 0,4.88365 -0.18819,5.32276 -2.25,5.25 -2.108,-0.0744 -2.26854,0.37817 -2.54381,7.1706 L 184.91238,145 H 155.5 126.08762 Z m 34.01656,-3.5 c -0.30264,-3.65661 -0.40999,-3.75 -4.31037,-3.75 -3.90038,0 -4.00773,0.0934 -4.31037,3.75 L 150.87927,138 H 155.5 160.12073 Z M 709,130 v -11 h 48 48 v 11 11 h -48 -48 z m 73,-0.5 V 126 H 756.5 731 v 3.5 3.5 h 25.5 25.5 z m -73.16118,-20.50182 -0.33882,-6.00182 3.31739,0.002 c 3.45828,0.002 3.51465,-0.2234 1.43839,-5.74818 C 712.897,96.295302 715.49855,96 724.26801,96 H 735.75 l 0.61326,3.066276 c 0.34234,1.711714 1.06182,2.789044 1.62867,2.438714 0.55847,-0.34516 0.73998,-1.724982 0.40333,-3.066275 L 737.78318,96 H 754.51659 771.25 l -0.6,3 c -0.35509,1.77543 -0.18078,3 0.42702,3 0.56486,0 1.49763,-1.35 2.07282,-3 l 1.04581,-3 h 12.93736 c 12.48091,0 12.90083,0.06824 11.90217,1.934259 C 797.06318,101.61898 797.74874,103 801.5499,103 h 3.54991 l -0.29991,5.75 -0.2999,5.75 -8.25,0.29044 c -7.73273,0.27223 -8.25,0.16251 -8.25,-1.75 C 788,111.0297 787.54145,111 756.5,111 c -30.83333,0 -31.5,0.0423 -31.5,2 0,1.83146 -0.66667,2 -7.91118,2 h -7.91118 z M 199.2944,103.75 202.5,94.5 216.75,94.222543 c 7.8375,-0.152601 14.25,-0.06876 14.25,0.186309 0,0.25507 -1.35,3.969661 -3,8.254648 -1.65,4.28498 -3,8.36364 -3,9.06369 C 225,112.6989 221.58038,113 210.5444,113 h -14.4556 z m 61.82375,5.25 -1.19843,-4 h -14.8446 -14.8446 l 2.03226,-5.516861 2.03227,-5.516861 25.01204,0.266861 25.01204,0.266861 2.84044,8.45477 C 288.7218,107.60489 290,111.76739 290,112.20477 290,112.64215 283.77123,113 276.15829,113 H 262.31658 Z M 4.0532149,105.25 C 5.8374874,102.0875 7.7886898,98.7125 8.3892202,97.75 9.2767587,96.327498 10.93321,96 17.240547,96 21.508246,96 25,96.258987 25,96.575527 c 0,0.31654 -1.81985,3.691543 -4.04411,7.500003 L 16.91178,111 H 8.8604314 0.809083 Z"
       id="path156"
       inkscape:connector-curvature="0" />
  </g>
</svg>
