<?xml version="1.0" encoding="UTF-8" standalone="no"?>
<!-- Created with Inkscape (http://www.inkscape.org/) -->

<svg
   xmlns:dc="http://purl.org/dc/elements/1.1/"
   xmlns:cc="http://creativecommons.org/ns#"
   xmlns:rdf="http://www.w3.org/1999/02/22-rdf-syntax-ns#"
   xmlns:svg="http://www.w3.org/2000/svg"
   xmlns="http://www.w3.org/2000/svg"
   xmlns:xlink="http://www.w3.org/1999/xlink"
   xmlns:sodipodi="http://sodipodi.sourceforge.net/DTD/sodipodi-0.dtd"
   xmlns:inkscape="http://www.inkscape.org/namespaces/inkscape"
   version="1.1"
   id="svg44"
   width="93"
   height="68"
   viewBox="0 0 93 68"
   sodipodi:docname="bt_t4.svg"
   inkscape:version="0.92.2 (5c3e80d, 2017-08-06)">
  <defs>
			<pattern id="avatar6" x="-100" y="-250" width="1116" height="676" patternUnits="userSpaceOnUse">
				<image width="1116" height="676" xlink:href="bt_hua.png"/>
			</pattern>
			<style>
				path {
					
				}
			</style>
		</defs>
  <g
     id="g54" style="fill:url(#avatar6)">
    <path
       d="M 26.351753,45.229303 C 14.720217,32.728186 5.3050282,22.390189 5.4291109,22.255975 c 0.1240827,-0.134213 4.9157941,1.607927 10.6482471,3.871422 11.114972,4.388816 11.449148,4.65195 25.147024,19.801017 l 6.716815,7.428415 7.873572,-8.428415 c 4.330465,-4.635628 8.956195,-9.676208 10.279402,-11.20129 1.645797,-1.896889 6.148579,-4.187256 14.253247,-7.25 C 86.863498,24.014706 92.423884,22 92.703832,22 93.296997,22 49.047942,67.387853 48.121894,67.729303 47.779852,67.85542 37.983289,57.73042 26.351753,45.229303 Z M 25.25182,9.7257231 C 13.565321,5.2912399 4.1153212,1.5758967 4.2518201,1.4694048 4.388319,1.3629129 9.225,2.152897 15,3.224925 23.019308,4.7135697 30.343255,5.2022595 46,5.2933975 65.677599,5.407941 70.010606,5.0078044 87.991993,1.4155976 89.371397,1.1400292 81.060481,4.7587871 69.52329,9.457282 57.9861,14.155777 48.0861,17.952394 47.52329,17.89421 46.960481,17.836025 36.938319,14.160206 25.25182,9.7257231 Z"
       id="path68"
       inkscape:connector-curvature="0" />
    <path
       d="M 26.864074,45.639545 C 15.514315,33.462795 6.3836257,23.330689 6.573654,23.123753 c 0.1900283,-0.206935 5.020072,1.502485 10.733431,3.798713 l 10.387924,4.17496 9.803475,10.951287 C 42.890395,48.071921 47.589341,53 47.940586,53 48.291831,53 53.06139,48.106994 58.539606,42.126653 L 68.5,31.253305 79.791781,27.001766 c 6.210479,-2.338346 11.481098,-4.06222 11.712486,-3.830832 0.231389,0.231388 -9.574913,10.362882 -21.79178,22.514431 L 47.5,67.77909 Z M 27.304006,10.196436 C 16.196209,5.9956567 7.2138016,2.4528651 7.3431009,2.3235658 7.4724002,2.1942665 11.385598,2.8213681 16.039095,3.7171249 26.82596,5.7935001 64.107675,6.1176695 74.5,4.2254501 78.35,3.5244477 82.85,2.7259281 84.5,2.4509622 87.050083,2.026001 53.300631,16.264881 49,17.428398 48.175,17.651598 38.411803,14.397215 27.304006,10.196436 Z"
       id="path66"
       inkscape:connector-curvature="0" />
    <path
       d="M 26.522549,45 C 15.157681,32.9 6.228343,22.998017 6.6795762,22.995593 c 0.4512331,-0.0024 5.3223978,1.802656 10.8248108,4.011289 l 10.004386,4.015695 9.82096,10.988711 C 42.731262,48.05508 47.484188,53 47.891792,53 c 0.407604,0 5.492064,-5.0625 11.2988,-11.25 L 69.748293,30.5 80.093082,26.802269 C 85.782715,24.768516 90.645978,23.312644 90.900331,23.566997 91.428474,24.09514 48.925042,67 47.873697,67 47.495434,67 37.887418,57.1 26.522549,45 Z M 28.802192,10.674786 C 18.518397,6.7629094 10.218398,3.4482686 10.357749,3.3089177 10.4971,3.1695668 15.986114,3.7671378 22.555557,4.6368532 36.676296,6.5062694 67.193707,5.9622299 78.5,3.6395213 82.35,2.8485964 85.608258,2.3019018 85.740573,2.4246444 85.956528,2.6249753 50.924297,16.80745 48.5,17.501146 47.95,17.658525 39.085986,14.586663 28.802192,10.674786 Z"
       id="path64"
       inkscape:connector-curvature="0" />
    <path
       d="M 27.82649,46.25 C 17.139607,34.8375 8.0519947,24.932342 7.6317957,24.238537 c -0.4771554,-0.787847 1.23193,-0.466115 4.5521033,0.856924 2.923855,1.165113 7.57378,2.992611 10.333166,4.061106 3.985777,1.543382 6.621257,3.760442 12.821223,10.785673 4.292287,4.863624 8.939442,9.903784 10.327011,11.200356 L 48.188153,53.5 58.844076,42.216967 69.5,30.933934 79.938953,26.989254 C 85.680378,24.819679 90.546144,23.212811 90.751768,23.418435 91.243379,23.910045 48.980191,67 48.006403,67 47.594334,67 38.513373,57.6625 27.82649,46.25 Z M 27.5,9.9743082 C 17.6,6.1893473 9.7642081,3.0717349 10.087129,3.0462806 c 0.322921,-0.025454 5.047921,0.6260666 10.5,1.4478243 C 33.2331,6.4001527 60.50655,6.4353133 72.985394,4.5616561 78.202361,3.7783457 82.584804,3.2514704 82.724155,3.3908221 83.285035,3.9517018 49.334998,16.99488 47.488217,16.928028 46.394698,16.888443 37.4,13.759269 27.5,9.9743082 Z"
       id="path62"
       inkscape:connector-curvature="0" />
    <path
       d="M 28.912566,47.306296 C 18.785655,36.474758 9.672648,26.565617 8.6614401,25.285981 L 6.8228801,22.95937 12.16144,25.086609 C 15.097648,26.25659 19.75,28.117815 22.5,29.222663 c 4.034886,1.621067 6.970729,4.196718 15.209828,13.343769 L 47.919657,53.901387 58.547782,42.517858 C 64.393251,36.256917 70.373828,30.700602 71.837954,30.170492 73.302079,29.640382 78.325,27.786485 83,26.050721 l 8.5,-3.155936 -6.992364,7.302608 C 69.537884,45.831336 48.495786,67 47.92507,67 47.595104,67 39.039478,58.137833 28.912566,47.306296 Z"
       id="path60"
       inkscape:connector-curvature="0" />
    <path
       d="M 30.39981,48.75 C 21.03225,38.7125 11.909248,28.836138 10.126471,26.80253 L 6.8850589,23.105059 17.009867,27.197674 27.134676,31.290288 37.22591,42.395144 C 42.776088,48.502815 47.597358,53.5 47.939843,53.5 c 0.342485,0 5.30262,-5.047966 11.022522,-11.217703 7.788174,-8.400665 11.421623,-11.57336 14.468728,-12.633963 2.237899,-0.778944 7.152091,-2.590507 10.920426,-4.025696 L 91.203038,23.013204 69.971036,45.006602 C 58.293435,57.102971 48.444892,67 48.085385,67 47.725878,67 39.767369,58.7875 30.39981,48.75 Z"
       id="path58"
       inkscape:connector-curvature="0" />
    <path
       d="M 27.809651,45.757323 C 16.979959,34.091846 8.234003,24.432664 8.3741925,24.292474 c 0.1401896,-0.140189 4.4450965,1.41356 9.5664605,3.452776 9.260396,3.687289 9.36702,3.769685 19.401176,14.992635 5.549283,6.206734 10.430953,11.167328 10.848156,11.023543 0.417202,-0.143786 5.279258,-5.206423 10.804568,-11.250306 L 69.040571,31.522245 80.005767,27.368552 90.970964,23.21486 69.917695,44.85743 C 58.338397,56.760843 48.55743,66.605138 48.182213,66.733641 47.806996,66.862143 38.639343,57.4228 27.809651,45.757323 Z"
       id="path56"
       inkscape:connector-curvature="0" />
  </g>
</svg>
