<?xml version="1.0" encoding="UTF-8" standalone="no"?>
<!-- Created with Inkscape (http://www.inkscape.org/) -->

<svg class="yinzang_ac2"
   xmlns:dc="http://purl.org/dc/elements/1.1/"
   xmlns:cc="http://creativecommons.org/ns#"
   xmlns:rdf="http://www.w3.org/1999/02/22-rdf-syntax-ns#"
   xmlns:svg="http://www.w3.org/2000/svg"
   xmlns="http://www.w3.org/2000/svg"
   xmlns:xlink="http://www.w3.org/1999/xlink"
   xmlns:sodipodi="http://sodipodi.sourceforge.net/DTD/sodipodi-0.dtd"
   xmlns:inkscape="http://www.inkscape.org/namespaces/inkscape"
   version="1.1"
   id="svg184"
   width="684"
   height="139"
   viewBox="0 0 684 139"
   sodipodi:docname="bt_t2.svg"
   inkscape:version="0.92.2 (5c3e80d, 2017-08-06)">
  <defs>
			<pattern id="avatar6" x="-300" y="-350" width="1116" height="676" patternUnits="userSpaceOnUse">
				<image width="1116" height="676" xlink:href="bt_hua.png"/>
			</pattern>
			<style>
				path {
					
				}
			</style>
		</defs>
  <path
     style="fill:url(#avatar6)"
     d="m 329,132.98761 c -8.525,-3.18615 -23.825,-8.93055 -34,-12.76534 -10.175,-3.83478 -27.22497,-10.19916 -37.88883,-14.14305 -10.66386,-3.9439 -21.97067,-8.257404 -25.12626,-9.58557 -3.15558,-1.328167 -13.78061,-5.303588 -23.61117,-8.834269 -9.83056,-3.530681 -20.70902,-7.613705 -24.17435,-9.073386 -3.46534,-1.459682 -16.06534,-6.207434 -28,-10.550562 C 144.26472,63.692305 131.6777,58.974985 128.22823,57.5525 124.77876,56.130014 110.82876,50.895965 97.228233,45.92128 83.627705,40.946595 67.1,34.719025 60.5,32.082236 53.9,29.445446 37.56847,23.285757 24.207712,18.394036 L -0.08457674,9.5 10.457712,9.2161683 21,8.9323366 V 5.9661683 C 21,4.3347757 21.28262,3 21.628044,3 22.629781,3 85.234748,26.102963 88,27.493086 c 1.375,0.691228 17.575,6.764765 36,13.496748 18.425,6.731984 34.38074,12.703999 35.4572,13.271144 1.07647,0.567146 13.90147,5.436855 28.5,10.821576 25.39763,9.368002 47.05848,17.453934 97.5428,36.412446 12.65,4.75049 31.65343,11.79864 42.22985,15.66255 l 19.22984,7.02529 18.77016,-6.70879 c 10.32358,-3.68983 19.64599,-7.16908 20.71646,-7.73167 1.07047,-0.56258 11.42047,-4.51567 23,-8.78465 C 421.02584,96.688747 441.3,89.150686 454.5,84.206481 c 13.2,-4.944205 36.15,-13.492979 51,-18.997275 14.85,-5.504297 28.8,-10.781975 31,-11.728173 2.2,-0.946198 17.37978,-6.607556 33.73285,-12.580795 16.35306,-5.973239 32.47397,-12.014158 35.82424,-13.424265 11.54583,-4.859573 60.23839,-22.5138225 60.73265,-22.0195697 0.27239,0.2723956 -0.06,1.1643475 -0.73872,1.9821154 -1.07534,1.2957084 0.0224,1.5237865 8.53927,1.774166 L 684.36353,9.5 664.43176,17.136196 c -10.96247,4.199908 -86.8413,33.337408 -168.61962,64.75 -81.77833,31.412594 -149.27833,57.064444 -150,57.004104 C 345.09046,138.83 337.525,136.17376 329,132.98761 Z m 0,-20 c -8.525,-3.18615 -23.825,-8.93055 -34,-12.76534 C 284.825,96.387486 267.77503,90.02311 257.11117,86.079215 246.44731,82.135321 235.1405,77.821816 231.98491,76.49365 228.82933,75.165483 218.2043,71.190062 208.37374,67.659381 198.54318,64.1287 187.66472,60.045676 184.19939,58.585995 c -3.46534,-1.459682 -16.06534,-6.207434 -28,-10.550562 -11.93467,-4.343128 -24.4094,-9.014821 -27.72163,-10.38154 C 125.16553,36.287173 109.64053,30.456619 93.977762,24.697107 78.314993,18.937594 63.025,13.08645 60,11.694565 L 54.5,9.163866 61.25,9.081933 68,9 V 5.059017 c 0,-2.1675407 0.365889,-4.16711486 0.813087,-4.44349823 0.447197,-0.27638337 3.034697,0.54404283 5.75,1.82316933 C 77.278389,3.7178146 97.05,11.168365 118.5,18.995467 c 21.45,7.827101 39.88074,14.695852 40.9572,15.263889 1.07647,0.568038 13.90147,5.438477 28.5,10.823198 25.29563,9.330377 46.08756,17.09156 97.5428,36.410637 12.65,4.749494 31.41268,11.714601 41.69484,15.478016 10.28216,3.763413 19.11654,7.103203 19.63195,7.421743 0.51542,0.31854 59.71993,-21.014556 131.56559,-47.406889 L 609.02086,9 624.26043,9.081933 639.5,9.163866 634,11.685232 c -3.025,1.386752 -18.325,7.24205 -34,13.011773 -15.675,5.769724 -31.2,11.602717 -34.5,12.962206 -3.3,1.359489 -16.575,6.318162 -29.5,11.019274 -12.925,4.701111 -25.44615,9.423209 -27.82477,10.49355 -2.37862,1.070342 -12.44681,4.862231 -22.37374,8.426421 -9.92694,3.56419 -20.6817,7.588443 -23.89947,8.942784 -3.21778,1.354342 -12.72459,4.949042 -21.12626,7.988223 C 432.37409,87.568643 421,91.829157 415.5,93.997271 c -5.5,2.168113 -15.625,6.016579 -22.5,8.552139 -6.875,2.53557 -19.7,7.26531 -28.5,10.51053 -8.8,3.24523 -16.9,5.85997 -18,5.81054 -1.1,-0.0494 -8.975,-2.69672 -17.5,-5.88287 z"
     id="pathB"
     inkscape:connector-curvature="0" />
</svg>
